<?xml version="1.0" standalone="no"?>
<!DOCTYPE svg PUBLIC "-//W3C//DTD SVG 1.1//EN" "http://www.w3.org/Graphics/SVG/1.1/DTD/svg11.dtd" >
<svg xmlns="http://www.w3.org/2000/svg">
<metadata>
Created by FontPrep 20130207 at Mon Dec 12 06:26:50 2016
 By Ayodeji Osokoya
Copyright (c) 2010 by Typemade. All rights reserved.
</metadata>
<defs>
<font id="773c5e84007c816e188f4bc78bd40af3" horiz-adv-x='1024' >
  <font-face 
    font-family="JosefinSans-Thin"
    font-weight="250"
    font-stretch="normal"
    units-per-em="2048"
    panose-1="0 0 0 0 0 0 0 0 0 0"
    ascent="1536"
    descent="-512"
    x-height="768"
    cap-height="1434"
    bbox="-125 -477 1944 1907"
    underline-thickness="102"
    underline-position="-102"
    unicode-range="U+000D-FB02"
  />
<missing-glyph horiz-adv-x="614" 
 />
    <glyph glyph-name=".notdef" horiz-adv-x="614" 
 />
    <glyph glyph-name=".null" horiz-adv-x="0" 
 />
    <glyph glyph-name=".null" horiz-adv-x="0" 
 />
    <glyph glyph-name="nonmarkingreturn" unicode="&#xd;" horiz-adv-x="614" 
 />
    <glyph glyph-name="space" unicode=" " horiz-adv-x="536" 
 />
    <glyph glyph-name="exclam" unicode="!" horiz-adv-x="462" 
d="M217 1536h29v-1196h-29v1196zM232 74q-15 0 -27 12t-12 30t12 29t27 11t27.5 -11.5t12.5 -28.5t-12.5 -29.5t-27.5 -12.5z" />
    <glyph glyph-name="quotedbl" unicode="&#x22;" horiz-adv-x="638" 
d="M168 967v508h37l-8 -508h-29zM440 967v508h37l-8 -508h-29z" />
    <glyph glyph-name="numbersign" unicode="#" horiz-adv-x="1177" 
d="M371 461l-54 -461h-28q14 117 26.5 230.5t26.5 230.5h-240l2 28h242q10 86 20.5 172.5t20.5 172.5h-237l2 28h239l55 455h29l-55 -455h348l55 455h29l-55 -455h278l-2 -28h-280q-10 -86 -20.5 -172.5t-20.5 -172.5h276l-2 -28h-278l-54 -461h-28q14 117 26.5 230.5
t26.5 230.5h-348zM416 834q-10 -86 -20.5 -172.5t-20.5 -172.5h348q10 86 20.5 172.5t20.5 172.5h-348z" />
    <glyph glyph-name="dollar" unicode="$" horiz-adv-x="1069" 
d="M549 1415h-19v-600q21 -9 82 -29t148.5 -69t145 -127t57.5 -188t-51 -222t-217 -169q-76 -26 -165 -27v-123h-28v123q-198 5 -294.5 70t-115.5 75l17 27q122 -90 290 -129q51 -12 103 -14v780q-76 27 -154 63q-192 87 -192 256q0 139 101 228t245 101v124h28v-123h7
q176 0 352 -76l-12 -23q-174 72 -328 72zM184 1100q0 -137 202 -228q55 -25 116 -47v588q-214 -19 -266 -127t-52 -186zM934 396q0 108 -77 206t-312 176q-7 2 -15 5v-771q164 2 284 99t120 285z" />
    <glyph glyph-name="percent" unicode="%" horiz-adv-x="1290" 
d="M961 1024l-611 -1024h-33l611 1024h33zM179 637q-66 64 -66 159t66.5 158.5t157.5 63.5q92 0 159 -65t67 -157t-67 -157.5t-159 -65.5t-158 64zM141 794q0 -80 58 -136t139 -56t139 56t58 136t-57.5 137.5t-139.5 57.5t-139.5 -57.5t-57.5 -137.5zM801 72q-66 64 -66 158
t66 158.5t158 64.5t159.5 -65.5t67.5 -157.5t-68 -157t-159 -65q-92 0 -158 64zM960.5 37q80.5 0 138.5 56t58 136t-57.5 137.5t-139 57.5t-139 -57.5t-57.5 -137.5t58 -136t138.5 -56z" />
    <glyph glyph-name="ampersand" unicode="&#x26;" horiz-adv-x="1312" 
d="M872 1427q-139 80 -259 80t-203.5 -78t-83.5 -198q0 -68 20 -121t39 -78l609 -787l202 541h35l-216 -569l169 -217h-37l-147 190q-90 -139 -222.5 -170.5t-220.5 -31.5q-187 0 -316.5 114.5t-129.5 279.5t129 277.5t299 125.5l-181 233q-63 108 -63 192q0 149 91 235.5
t224 86.5t275 -86q-8 -12 -13 -19zM269 118q124 -102 284 -102q159 0 269.5 62t157.5 138l-418 540q-148 -2 -282.5 -109t-134.5 -267t124 -262z" />
    <glyph glyph-name="quotesingle" unicode="'" horiz-adv-x="366" 
d="M168 967v508h37l-8 -508h-29z" />
    <glyph glyph-name="parenleft" unicode="(" horiz-adv-x="516" 
d="M137 532q0 -211 93.5 -441.5t222.5 -377.5q-2 -12 -3 -23.5t-4 -23.5q-139 143 -238 393.5t-99 538.5t98 536.5t239 395.5l7 -47q-217 -251 -266.5 -495.5t-49.5 -455.5z" />
    <glyph glyph-name="parenright" unicode=")" horiz-adv-x="516" 
d="M379 663.5q0 210.5 -92 440t-224 379.5q2 12 3.5 23.5t3.5 23.5q227 -245 282.5 -511.5t55.5 -486t-97 -465.5t-241 -401l-7 47q217 251 266.5 495.5t49.5 455z" />
    <glyph glyph-name="asterisk" unicode="*" horiz-adv-x="868" 
d="M416 889v260q-41 -24 -226 -129l-18 31l227 129l-227 135l14 24q57 -35 114.5 -66.5t115.5 -66.5v269h37q-2 -68 -2 -134.5t-2 -134.5l233 131l14 -24q-59 -35 -115.5 -67.5t-115.5 -67.5q139 -80 229 -131l-18 -31l-227 135l-5 -262h-28z" />
    <glyph glyph-name="plus" unicode="+" horiz-adv-x="983" 
d="M477 104v357h-354v28h354v353h29v-353h354v-28h-354v-357h-29z" />
    <glyph glyph-name="comma" unicode="," horiz-adv-x="471" 
d="M92 -246l158 422h47l-176 -422h-29z" />
    <glyph glyph-name="hyphen" unicode="-" horiz-adv-x="671" 
d="M147 377v29h377v-29h-377z" />
    <glyph glyph-name="period" unicode="." horiz-adv-x="376" 
d="M147 41q0 16 12.5 28.5t29 12.5t28.5 -12.5t12 -28.5t-12 -28.5t-28.5 -12.5t-29 12.5t-12.5 28.5z" />
    <glyph glyph-name="slash" unicode="/" horiz-adv-x="790" 
d="M694 1507l-569 -1546h-29q329 894 570 1546h28z" />
    <glyph glyph-name="zero" unicode="0" horiz-adv-x="1374" 
d="M282.5 246.5q114.5 -137.5 209 -185t192.5 -47.5t192.5 45t213 180.5t118.5 427.5t-147 472t-372 180t-373 -178.5t-148 -467.5t114.5 -426.5zM137 648q0 120 30 238t95.5 221t172.5 172t259 69t256.5 -71t168 -174.5t91 -222t27.5 -238.5t-45 -244t-121 -216t-177 -144
t-214 -52t-212 54t-173 146.5t-116 217t-42 244.5z" />
    <glyph glyph-name="one" unicode="1" horiz-adv-x="583" 
d="M70 1303v28h260v-1331h-29v1303h-231z" />
    <glyph glyph-name="two" unicode="2" horiz-adv-x="1036" 
d="M223 711q-92 105 -92 262q0 158 96 266.5t261 108.5t265.5 -111t100.5 -287q0 -207 -154.5 -395t-268.5 -301.5t-220 -224.5h737v-29h-811q131 127 409.5 403.5t278.5 522.5q0 206 -101.5 299.5t-215.5 93.5q-193 0 -270.5 -110t-77.5 -251q0 -142 82 -231z" />
    <glyph glyph-name="three" unicode="3" horiz-adv-x="989" 
d="M152 145q110 -133 275 -133t281.5 115t116.5 274t-116.5 272t-278.5 113q-66 0 -125 -47q111 141 217.5 281.5t216.5 282.5h-587v28h653q-102 -129 -203.5 -258t-204.5 -258q187 8 322 -112t135 -298t-123 -299.5t-299 -121.5q-177 0 -301 135q4 6 10 13t11 13z" />
    <glyph glyph-name="four" unicode="4" horiz-adv-x="1083" 
d="M799 403h198v-28h-198v-375h-29v375h-721q188 244 374.5 486.5t375.5 486.5v-945zM770 403v861q-166 -217 -330 -430t-329 -431h659z" />
    <glyph glyph-name="five" unicode="5" horiz-adv-x="970" 
d="M195 1331h587v-28h-559v-541q96 47 192 47q95 0 172 -32t133 -87t90 -130t34 -202t-122 -250.5t-291 -123.5t-294 114l23 21q103 -107 263 -107t276 115t116 271t-115 269t-269 113t-236 -82v633z" />
    <glyph glyph-name="six" unicode="6" horiz-adv-x="1085" 
d="M538 809q96 0 172 -33t132.5 -89t89.5 -131t33 -161t-33 -160.5t-89.5 -130t-133 -88t-206.5 -32.5t-252 120.5t-122 280.5t63.5 288t162 238.5t219 205.5t235.5 179l20 -26q-370 -243 -480.5 -406.5t-135.5 -220.5q57 76 143 121t182 45zM156 395q0 -80 30.5 -149.5
t83 -121.5t124 -82t151.5 -30t151.5 30t124.5 82t84 121.5t31 149.5t-31 149.5t-84 122t-124.5 83t-151.5 30.5t-151.5 -30.5t-124 -83t-83 -122t-30.5 -149.5z" />
    <glyph glyph-name="seven" unicode="7" horiz-adv-x="940" 
d="M80 1303v28h821l-598 -1331h-37q147 328 294 651.5t294 651.5h-774z" />
    <glyph glyph-name="eight" unicode="8" horiz-adv-x="1091" 
d="M218 651.5q87 111.5 222 145.5q-86 29 -141 100t-55 147t23.5 128.5t63.5 91.5t93 61.5t144 22.5t178.5 -87.5t87.5 -192.5t-52.5 -174t-136.5 -97q137 -32 228.5 -144t91.5 -268q0 -155 -123 -278t-296 -123t-294 122.5t-121 277.5q0 156 87 267.5zM272 125.5
q112 -115.5 271 -115.5t276 117t117 271t-115 268t-278 114t-273 -112t-110 -270q0 -157 112 -272.5zM350 877.5q78 -66.5 191 -66.5t188.5 66t75.5 175q0 108 -77.5 187.5t-186.5 79.5t-189 -80t-80 -188q0 -107 78 -173.5z" />
    <glyph glyph-name="nine" unicode="9" horiz-adv-x="1085" 
d="M548 471q-95 0 -172 33t-133.5 89t-89 131t-32.5 161t32.5 160.5t89 130t133.5 88t206.5 32.5t251.5 -120t122 -280q0 -161 -63.5 -289t-161.5 -238.5t-219 -205.5t-236 -179l-20 26q372 244 482 407t134 220q-57 -76 -143 -121t-181 -45zM930 885q0 80 -31 149.5
t-83 121.5t-123.5 82t-151.5 30t-152 -30t-125 -82t-83.5 -121.5t-30.5 -149.5t30.5 -150.5t83.5 -123t125 -82t152 -29.5t151.5 29.5t123.5 82t83 123t31 150.5z" />
    <glyph glyph-name="colon" unicode=":" horiz-adv-x="376" 
d="M147 41q0 16 12.5 28.5t29 12.5t28.5 -12.5t12 -28.5t-12 -28.5t-28.5 -12.5t-29 12.5t-12.5 28.5zM147 553q0 16 12.5 28.5t29 12.5t28.5 -12.5t12 -28.5t-12 -28.5t-28.5 -12.5t-29 12.5t-12.5 28.5z" />
    <glyph glyph-name="semicolon" unicode=";" horiz-adv-x="460" 
d="M74 -246l157 422h48l-177 -422h-28zM229 553q0 16 12.5 28.5t29 12.5t28.5 -12.5t12 -28.5t-12 -28.5t-28.5 -12.5t-29 12.5t-12.5 28.5z" />
    <glyph glyph-name="less" unicode="&#x3c;" horiz-adv-x="1146" 
d="M129 487l844 -485v-33q-225 129 -448.5 259t-448.5 259q225 129 448.5 259.5t448.5 259.5v-33q-211 -123 -422 -243t-422 -243z" />
    <glyph glyph-name="equal" unicode="=" horiz-adv-x="1372" 
d="M1204 733v-28h-1036v28h1036zM1204 336v-29h-1036v29h1036z" />
    <glyph glyph-name="greater" unicode="&#x3e;" horiz-adv-x="1146" 
d="M1018 487l-844 486v33q225 -129 448.5 -259.5t448.5 -259.5q-225 -129 -448.5 -259t-448.5 -259v33q211 123 422 243t422 242z" />
    <glyph glyph-name="question" unicode="?" horiz-adv-x="987" 
d="M460 51q-15 0 -27.5 12.5t-12.5 29.5t12 28.5t28 11.5t28 -10.5t12 -28.5t-12.5 -30.5t-27.5 -12.5zM461 1499q168 0 284.5 -116.5t116.5 -282.5q0 -233 -175.5 -333.5t-194.5 -152t-19 -118.5v-160h-29v199q0 63 24 101t61.5 67.5t86 59.5t104.5 79q114 100 114 257
q0 158 -106.5 264.5t-266.5 106.5q-121 0 -218 -68.5t-134 -180.5l-27 6q41 119 143.5 195.5t235.5 76.5z" />
    <glyph glyph-name="at" unicode="@" horiz-adv-x="1886" 
d="M119 387q0 168 63.5 315.5t173 258t257 174t315.5 63.5t315.5 -63.5t258 -174t174 -259.5t63.5 -293q0 -243 -77 -325.5t-202 -82.5h-192v111q0 33 1 64.5t1 64.5q-74 -177 -191.5 -214.5t-191.5 -37.5q-156 0 -271.5 115.5t-115.5 283.5t117 282.5t280 114.5
q127 0 226.5 -70.5t144.5 -181.5q0 118 8 236h20v-741h179q111 0 173 86t62 260t-61.5 317.5t-168 250t-248.5 167.5t-304 61t-304.5 -61t-248 -167.5t-167 -250t-61.5 -305.5t61.5 -304t167 -247.5t248 -167t304.5 -61.5q237 0 448 143l19 -22q-219 -150 -467 -150
q-168 0 -315.5 63.5t-257 174t-173 258t-63.5 315.5zM636 124q108 -108 260 -108t262 107.5t110 260.5q0 154 -109 263t-263 109t-261 -109.5t-107 -262.5q0 -152 108 -260z" />
    <glyph glyph-name="A" unicode="A" horiz-adv-x="1310" 
d="M340 680v-29h10q-121 -325 -258 -651h-31q158 375 297.5 749.5t296.5 749.5q158 -375 297.5 -749.5t296.5 -749.5h-30q-137 326 -258 651h12v29h-23q-49 147 -170 444t-125 310q-9 -27 -86 -212q-77 -186 -141 -362t-68 -180h-20zM950 680q5 -14 11 -29h-611q5 14 10 29
h590z" />
    <glyph glyph-name="B" unicode="B" horiz-adv-x="1150" 
d="M936 1069q0 -283 -240 -348q131 -26 223.5 -117t92.5 -251q0 -159 -127.5 -256t-306.5 -97h-334v1434h276q416 0 416 -365zM272 705v-676h303q178 0 293 87t115 250q0 162 -129.5 250.5t-316.5 88.5h-265zM272 1405v-672h301q164 0 249 96.5t85 251.5q0 246 -141 285
t-221 39h-273z" />
    <glyph glyph-name="C" unicode="C" horiz-adv-x="1329" 
d="M125 713q0 152 57.5 287t156.5 235t232 157.5t261 57.5q224 0 399 -102q-15 -23 -17 -25q-163 98 -358 98q-145 0 -273 -55t-223.5 -152.5t-150.5 -227.5t-55 -274t49 -270.5t139 -221.5t217 -151.5t307 -56.5t344 99l19 -25q-178 -102 -360 -102q-183 0 -316 58
t-228.5 156.5t-147.5 230.5t-52 284z" />
    <glyph glyph-name="D" unicode="D" horiz-adv-x="1456" 
d="M618 29q137 0 261.5 48t272.5 188t148 452q0 269 -185.5 477.5t-559.5 208.5h-283v-1374h346zM244 1434h293q217 0 367.5 -67t244.5 -171t136 -231t42 -269t-57.5 -275.5t-208 -277t-455.5 -143.5h-362v1434z" />
    <glyph glyph-name="E" unicode="E" horiz-adv-x="1245" 
d="M244 0v1434h850v-29h-822v-668h742v-28h-742v-680h850v-29h-878z" />
    <glyph glyph-name="F" unicode="F" horiz-adv-x="1114" 
d="M244 0v1434h768v-29h-740v-688h660v-29h-660v-688h-28z" />
    <glyph glyph-name="G" unicode="G" horiz-adv-x="1388" 
d="M865 12q175 0 335 92v482h-352v28h381v-528q-178 -102 -358 -102q-181 0 -316 57t-230.5 156.5t-147.5 232.5t-52 284.5t57.5 286t156.5 233.5t232 157.5t261 58.5q224 0 399 -102l-17 -25q-163 98 -358 98q-145 0 -273 -56t-223.5 -152.5t-150.5 -225.5t-55 -274.5
t49 -272.5t140 -222t219 -150.5t303 -55.5z" />
    <glyph glyph-name="H" unicode="H" horiz-adv-x="1499" 
d="M1223 0v709h-951v-709h-28v1434h28v-697h951v697h37l-9 -1434h-28z" />
    <glyph glyph-name="I" unicode="I" horiz-adv-x="516" 
d="M244 1434h28v-1434h-28v1434z" />
    <glyph glyph-name="J" unicode="J" horiz-adv-x="520" 
d="M250 190v1244h29v-1250q0 -219 -110 -345t-269 -130v29q154 8 252 128.5t98 323.5z" />
    <glyph glyph-name="K" unicode="K" horiz-adv-x="1206" 
d="M244 0v1434h28v-697q0 -16 -1 -29.5t-1 -29.5q10 10 17.5 20.5t106.5 105.5t285.5 272t375.5 358h45q-7 -7 -594 -566q174 -217 343 -434t343 -434h-41l-668 848l-213 -201l2 -647h-28z" />
    <glyph glyph-name="L" unicode="L" horiz-adv-x="1132" 
d="M244 0v1434h28v-1405h830v-29h-858z" />
    <glyph glyph-name="M" unicode="M" horiz-adv-x="1822" 
d="M272 0h-28v1499q321 -478 667 -973q45 66 242 364t426 609v-1499h-29v1321q0 23 1 46.5t1 45.5q-178 -250 -335.5 -487.5t-305.5 -458.5q-78 98 -183 255t-168.5 252t-119 180t-100.5 152.5t-70 106.5l2 -92v-1321z" />
    <glyph glyph-name="N" unicode="N" horiz-adv-x="1656" 
d="M1384 1434h29v-1500q-446 559 -1108 1438q-10 14 -19.5 26.5t-19.5 26.5l6 -65v-1360h-28v1499q261 -331 574.5 -746.5t428.5 -562.5t124 -159.5t20 -26.5l-7 66v1364z" />
    <glyph glyph-name="O" unicode="O" horiz-adv-x="1716" 
d="M154 712.5q0 -145.5 55 -272.5t149.5 -222t221.5 -150.5t271 -55.5t274 55.5t227.5 150.5t154 223t56.5 273.5t-56.5 273.5t-153 224.5t-224.5 152.5t-273 56t-273 -56t-223.5 -152.5t-150.5 -225.5t-55 -274.5zM125 714.5q0 151.5 57.5 286t156.5 233.5t232.5 157.5
t285 58.5t285.5 -58.5t233.5 -157.5t157.5 -233.5t58 -286t-58 -284.5t-157.5 -232.5t-233.5 -156.5t-285.5 -57t-285 57t-232.5 156.5t-156.5 232.5t-57.5 284.5z" />
    <glyph glyph-name="P" unicode="P" horiz-adv-x="1048" 
d="M244 0v1434h286q148 0 279 -93.5t131 -272.5t-112 -295t-326 -116h-230v-657h-28zM272 686h236q212 0 307.5 116.5t95.5 264.5t-114.5 243t-286.5 95h-238v-719z" />
    <glyph glyph-name="Q" unicode="Q" horiz-adv-x="1722" 
d="M154 712.5q0 -145.5 55 -272.5t149.5 -222t221.5 -150.5t271 -55.5t274 55.5t227.5 150.5t154 223t56.5 273.5t-56.5 273.5t-153 224.5t-224.5 152.5t-273 56t-273 -56t-223.5 -152.5t-150.5 -225.5t-55 -274.5zM125 714.5q0 151.5 57.5 286t156.5 233.5t232.5 157.5
t285 58.5t285.5 -58.5t233.5 -157.5t157.5 -233.5t58 -269.5q0 -250 -132 -435.5t-349 -266.5h526v-29h-628q-78 -16 -152 -16q-152 0 -285 57t-232 156.5t-156.5 232.5t-57.5 284.5z" />
    <glyph glyph-name="R" unicode="R" horiz-adv-x="1161" 
d="M244 0v1434h286q148 0 279 -93.5t131 -272.5t-84 -266.5t-175 -117.5l411 -684h-37l-401 676q-67 -18 -152 -19h-230v-657h-28zM272 686h236q213 0 308 121t95 265t-114.5 238.5t-286.5 94.5h-238v-719z" />
    <glyph glyph-name="S" unicode="S" horiz-adv-x="1087" 
d="M889 1343q-174 72 -334 72t-259 -86.5t-99 -196.5t57 -165.5t144 -94t187.5 -72.5t187.5 -83t144.5 -127t57.5 -188q0 -199 -125 -308.5t-324 -109.5t-301 67.5t-121 77.5l17 27q121 -89 236.5 -116.5t185.5 -27.5q162 0 282.5 98.5t120.5 272.5q0 121 -57.5 194.5
t-144.5 120.5t-187 80t-187 73t-144.5 100.5t-57.5 145.5q0 154 109 249.5t279 95.5t345 -76z" />
    <glyph glyph-name="T" unicode="T" horiz-adv-x="1019" 
d="M934 1434v-29h-410v-1405h-28v1405h-410v29h848z" />
    <glyph glyph-name="U" unicode="U" horiz-adv-x="1370" 
d="M225 463v971h29v-965q0 -217 118.5 -337t312.5 -120t313.5 121t119.5 336v965h29v-971q0 -226 -128.5 -352.5t-333.5 -126.5t-332.5 125.5t-127.5 353.5z" />
    <glyph glyph-name="V" unicode="V" horiz-adv-x="1306" 
d="M90 1434q145 -346 272 -691.5t204 -530.5t87 -212q5 15 84 206q80 191 207 536t273 692h30q-158 -375 -297 -750t-297 -750q-158 375 -297 750t-297 750h31z" />
    <glyph glyph-name="W" unicode="W" horiz-adv-x="1904" 
d="M1847 1434q-55 -127 -271 -671q-215 -543 -323 -829l-303 818l-14 43l-14 -43q-51 -158 -86 -264t-57.5 -175t-44 -136.5t-42 -129t-37.5 -113.5q-158 375 -297 750t-297 750h31q76 -176 259 -647q183 -472 286 -736l18 -51l269 836l-224 598h31q102 -270 169 -452
t110 -298.5t109.5 -303.5t92.5 -264q27 -77 32 -90.5t9 -25.5q5 15 11 27t57 150q51 137 121 319q268 690 375 938h30z" />
    <glyph glyph-name="X" unicode="X" horiz-adv-x="1105" 
d="M61 0l471 737q-113 174 -225 348.5t-225 348.5h33q106 -164 212.5 -327t162.5 -248t59.5 -92t7.5 -13q4 6 8 13t58 92t159 248t209 327h25l-447 -699q119 -184 240 -367.5t240 -367.5h-35l-375 571q-23 35 -46.5 75t-47.5 73q-8 -11 -459 -719h-25z" />
    <glyph glyph-name="Y" unicode="Y" horiz-adv-x="1216" 
d="M623 0h-29v537q-135 225 -269.5 448t-269.5 449h35q123 -207 248 -411t246 -413l26 -53q6 14 11.5 26.5t11.5 26.5l491 824h35l-536 -897v-537z" />
    <glyph glyph-name="Z" unicode="Z" horiz-adv-x="1284" 
d="M188 1434h973l-1061 -1405h1129v-29h-1180q262 369 527.5 714t527.5 691h-887q-63 0 -93 16.5t-30 75.5v8h33v-24q0 -18 13 -32.5t48 -14.5z" />
    <glyph glyph-name="bracketleft" unicode="[" horiz-adv-x="608" 
d="M211 -305v1833h334v-29h-301v-1775h301v-29h-334z" />
    <glyph glyph-name="backslash" unicode="\" horiz-adv-x="790" 
d="M125 1507q143 -389 284.5 -773t284.5 -773h-28q-329 894 -570 1546h29z" />
    <glyph glyph-name="bracketright" unicode="]" horiz-adv-x="608" 
d="M397 1528v-1833h-334v29h302v1775h-302v29h334z" />
    <glyph glyph-name="asciicircum" unicode="^" horiz-adv-x="843" 
d="M422 1296l-213 -315h-33q61 92 123 185.5t123 185.5q61 -92 122.5 -185.5t123.5 -185.5h-33q-53 78 -106.5 158t-106.5 157z" />
    <glyph glyph-name="underscore" unicode="_" horiz-adv-x="1114" 
d="M967 0h-820v29h820v-29z" />
    <glyph glyph-name="grave" unicode="`" horiz-adv-x="409" 
d="M4 1253q47 -68 92 -136t92 -136h-32q-47 68 -92.5 136.5t-92.5 135.5h33z" />
    <glyph glyph-name="a" unicode="a" 
d="M889 768v-768h-29v111q0 33 1 64.5t1 64.5q-74 -178 -191.5 -215t-191.5 -37q-157 0 -272 116.5t-115 282.5t117 281.5t280 115.5q127 0 226.5 -70.5t144.5 -181.5q0 118 8 236h21zM229.5 123q108.5 -107 259.5 -107t261 106.5t110 261.5t-109.5 263.5t-261.5 108.5
q-153 0 -260.5 -109t-107.5 -263t108.5 -261z" />
    <glyph glyph-name="b" unicode="b" 
d="M184 0h-28v1536h28v-1004q45 111 144.5 181.5t226.5 70.5q163 0 280 -115t117 -282q0 -168 -115.5 -283.5t-293.5 -115.5t-259 98t-102 154l2 -129v-111zM816.5 646.5q-107.5 109.5 -260.5 109.5q-154 0 -263 -109t-109 -263t109.5 -261t262.5 -107q152 0 260 108
t108 260q0 153 -107.5 262.5z" />
    <glyph glyph-name="c" unicode="c" horiz-adv-x="825" 
d="M741 76q-114 -88 -266 -88t-267.5 116.5t-115.5 282.5t117 281.5t270 115.5t262 -88q-4 -6 -10 -11t-10 -11q-99 82 -242 82t-250.5 -109t-107.5 -263t108.5 -261t248.5 -107q141 0 243 80z" />
    <glyph glyph-name="d" unicode="d" 
d="M209 668.5q117 115.5 280 115.5q127 0 226.5 -70.5t144.5 -181.5v1004h29v-1536h-29v111q0 33 1 64.5t1 64.5q-74 -178 -191.5 -215t-191.5 -37t-145.5 30.5t-156.5 116.5t-85 252t117 281.5zM229.5 123q108.5 -107 259.5 -107t261 106.5t110 261.5t-109.5 263.5
t-261.5 108.5q-153 0 -260.5 -109t-107.5 -263t108.5 -261z" />
    <glyph glyph-name="e" unicode="e" horiz-adv-x="894" 
d="M506 756q-169 0 -277 -109t-108 -262q0 -59 14 -109l662 269q-43 92 -120 151.5t-171 59.5zM764 94q-115 -106 -278 -106t-278.5 116.5t-115.5 281.5t116 282.5t281 117.5q127 0 214.5 -72.5t132.5 -183.5q-481 -191 -691 -280q41 -104 133.5 -169t225.5 -65t237 99z" />
    <glyph glyph-name="f" unicode="f" horiz-adv-x="514" 
d="M59 733v29h134v299q0 222 107.5 344.5t270.5 130.5v-29q-145 0 -247.5 -122.5t-102.5 -315.5v-307h266v-29h-266v-733h-28v733h-134z" />
    <glyph glyph-name="g" unicode="g" 
d="M229.5 123q108.5 -107 259.5 -107t261 106.5t110 261.5t-109.5 263.5t-261.5 108.5q-153 0 -260.5 -109t-107.5 -263t108.5 -261zM479 -12q-157 0 -272 116.5t-115 282.5t117 281.5t280 115.5q127 0 226.5 -70.5t144.5 -181.5q0 118 8 236h21v-784q0 -241 -139.5 -297
t-257.5 -56q-184 0 -345 158l19 21q133 -128 212.5 -139t149.5 -11t140.5 26.5t128 92t61.5 233.5v8l2 91v5v32l2 92q-74 -178 -191.5 -215t-191.5 -37z" />
    <glyph glyph-name="h" unicode="h" horiz-adv-x="901" 
d="M156 1536h28v-956q37 86 126 144t202 58t175.5 -63.5t66.5 -165.5v-553h-29v567q-4 74 -54.5 128.5t-130.5 56.5q-148 4 -252 -83t-104 -218v-451h-28v1536z" />
    <glyph glyph-name="i" unicode="i" horiz-adv-x="339" 
d="M184 0h-28v768h28v-768zM129 1024q0 16 12.5 28.5t28.5 12.5t28.5 -12.5t12.5 -28.5t-12.5 -28.5t-28.5 -12.5t-28.5 12.5t-12.5 28.5z" />
    <glyph glyph-name="j" unicode="j" horiz-adv-x="339" 
d="M156 -23v791h28v-782q0 -226 -116 -355l-25 19q113 126 113 327zM129 1024q0 16 12.5 28.5t28.5 12.5t28.5 -12.5t12.5 -28.5t-12.5 -28.5t-28.5 -12.5t-28.5 12.5t-12.5 28.5z" />
    <glyph glyph-name="k" unicode="k" horiz-adv-x="749" 
d="M184 0h-28v1536h28v-1176l457 426l18 -20l-299 -285q88 -121 176.5 -240.5t176.5 -240.5h-37l-340 461l-152 -144v-317z" />
    <glyph glyph-name="l" unicode="l" horiz-adv-x="356" 
d="M193 0h-29v1536h29v-1536z" />
    <glyph glyph-name="m" unicode="m" horiz-adv-x="1470" 
d="M156 768h20l2 -201q41 96 131.5 155.5t198.5 59.5t170.5 -56t73.5 -148q43 92 132.5 148t199.5 56t172.5 -63.5t66.5 -165.5v-553h-29v567q-4 74 -54 128.5t-129 56.5q-148 4 -250.5 -81t-106.5 -208v-463h-29v567q-4 74 -54.5 128.5t-130.5 56.5q-148 4 -252 -83
t-104 -218v-451h-28v768z" />
    <glyph glyph-name="n" unicode="n" horiz-adv-x="901" 
d="M156 768h20l2 -201q41 96 131 155.5t203 59.5t175.5 -63.5t66.5 -165.5v-553h-29v567q-4 74 -54.5 128.5t-130.5 56.5q-148 4 -252 -83t-104 -218v-451h-28v768z" />
    <glyph glyph-name="o" unicode="o" horiz-adv-x="983" 
d="M229.5 123q108.5 -107 259.5 -107t261 106.5t110 261.5t-109.5 263.5t-261.5 108.5q-153 0 -260.5 -109t-107.5 -263t108.5 -261zM208 668.5q116 117.5 282 117.5t283.5 -118.5t117.5 -281.5t-116 -280.5t-285 -117.5q-168 0 -283 116.5t-115 281.5t116 282.5z" />
    <glyph glyph-name="p" unicode="p" 
d="M184 -369h-28v1137h28v-236q45 111 144.5 181.5t226.5 70.5q163 0 280 -115t117 -282q0 -168 -115.5 -283.5t-293.5 -115.5t-259 98t-102 154l2 -129v-480zM816.5 646.5q-107.5 109.5 -260.5 109.5q-154 0 -263 -109t-109 -263t109.5 -261t262.5 -107q152 0 260 108
t108 260q0 153 -107.5 262.5z" />
    <glyph glyph-name="q" unicode="q" 
d="M209 668.5q117 115.5 280 115.5q127 0 226.5 -70.5t144.5 -181.5v236h29v-1137h-29v480q0 33 1 64.5t1 64.5q-74 -178 -191.5 -215t-191.5 -37t-145.5 30.5t-156.5 116.5t-85 252t117 281.5zM229.5 123q108.5 -107 259.5 -107t261 106.5t110 261.5t-109.5 263.5
t-261.5 108.5q-153 0 -260.5 -109t-107.5 -263t108.5 -261z" />
    <glyph glyph-name="r" unicode="r" horiz-adv-x="534" 
d="M184 451v-451h-28v768h20l2 -201q43 98 133 154.5t207 60.5v-28q-136 -4 -235 -90t-99 -213z" />
    <glyph glyph-name="s" unicode="s" horiz-adv-x="647" 
d="M343.5 12q46.5 0 114.5 46.5t68 143.5t-75.5 133t-130 52t-130 54.5t-75.5 138.5q0 99 61 147.5t124 48.5q146 0 224 -88l-20 -20q-35 41 -89.5 60.5t-88.5 19.5q-68 0 -125.5 -40t-57.5 -109q0 -68 31 -101t76 -54.5t99 -38t130 -56t76 -136.5q0 -98 -62 -163.5
t-174 -65.5q-55 0 -122.5 21.5t-110.5 74.5l23 18q36 -54 112 -70t122.5 -16z" />
    <glyph glyph-name="t" unicode="t" horiz-adv-x="536" 
d="M219 1104h29v-352h260v-29h-260v-723h-29v723h-182v29h182v352z" />
    <glyph glyph-name="u" unicode="u" horiz-adv-x="901" 
d="M745 0h-20l-2 201q-41 -98 -132 -156.5t-203 -58.5t-174 63.5t-67 165.5v553h29v-567q4 -74 54.5 -128.5t130.5 -56.5q149 -4 252.5 84t103.5 217v451h28v-768z" />
    <glyph glyph-name="v" unicode="v" horiz-adv-x="819" 
d="M410 -47q-75 150 -185.5 414t-179.5 401h31q94 -186 166.5 -374.5t167.5 -377.5q94 188 166.5 376t166.5 376h31q-69 -137 -182 -407.5t-182 -407.5z" />
    <glyph glyph-name="w" unicode="w" horiz-adv-x="1294" 
d="M410 16l211 529q-25 55 -50.5 111.5t-50.5 111.5h31q228 -511 334 -752l334 752h30q-92 -205 -182 -407.5t-182 -407.5q-61 141 -124 280.5t-124 280.5q-57 -141 -113.5 -280.5t-113.5 -280.5q-92 205 -182.5 407.5t-182.5 407.5h31q84 -188 166 -376.5t168 -375.5z" />
    <glyph glyph-name="x" unicode="x" horiz-adv-x="718" 
d="M68 0l274 383q-72 98 -141.5 192.5t-141.5 192.5h37l264 -362q241 336 258 360h35l-276 -385q72 -96 140.5 -190.5t139.5 -190.5h-32q-66 90 -132.5 179t-132.5 179l-256 -358h-36z" />
    <glyph glyph-name="y" unicode="y" horiz-adv-x="827" 
d="M283 -369h-37l149 344l-346 793h31l334 -752l334 752h30z" />
    <glyph glyph-name="z" unicode="z" horiz-adv-x="720" 
d="M645 0h-571l532 739h-424q-63 0 -93 16.5t-30 75.5v9h27v-25q0 -18 16.5 -32.5t51.5 -14.5h501l-532 -739h522v-29z" />
    <glyph glyph-name="braceleft" unicode="{" horiz-adv-x="555" 
d="M238 913v373q0 229 71.5 235.5t104.5 6.5h75v-29h-116q-63 0 -85 -53t-22 -176v-307q0 -246 -54 -291t-81 -60q27 -16 81 -61t54 -289v-307q0 -123 21.5 -176t85.5 -53h116v-29h-75q-41 0 -74 4t-67.5 47.5t-34.5 263.5v299q0 175 -56.5 225t-105.5 52v49q88 4 125 86
t37 190z" />
    <glyph glyph-name="bar" unicode="|" horiz-adv-x="450" 
d="M211 -475v1909h29v-1909h-29z" />
    <glyph glyph-name="braceright" unicode="}" horiz-adv-x="555" 
d="M289 338q0 199 135 274q-65 34 -100 105t-35 246v307q0 123 -21.5 176t-85.5 53h-116v29h75q33 0 104.5 -6.5t71.5 -235.5v-280q0 -281 59.5 -324t102.5 -45v-49q-110 -7 -136 -108t-26 -242v-299q0 -233 -71.5 -237.5t-104.5 -4.5h-75v29h116q63 0 85 53t22 176v383z
" />
    <glyph glyph-name="asciitilde" unicode="~" horiz-adv-x="966" 
d="M364 1079q-81 0 -109 -39t-32 -73q-6 2 -13 2t-13 2q4 69 53 103t103 34q53 0 86.5 -21.5t77.5 -69.5t109 -48t93.5 39t32.5 73q6 -2 13 -2t13 -2q-4 -68 -53 -102.5t-102 -34.5q-54 0 -87.5 21.5t-66.5 56.5q-55 61 -105 61z" />
    <glyph glyph-name="exclamdown" unicode="&#xa1;" horiz-adv-x="454" 
d="M213 766h29v-1196h-29v1196zM228 1032q15 0 27.5 -12t12.5 -30t-12 -29t-28 -11t-28 11.5t-12 28.5t12.5 29.5t27.5 12.5z" />
    <glyph glyph-name="cent" unicode="&#xa2;" horiz-adv-x="874" 
d="M500 -12v-127h-29v128q-149 11 -258 121.5t-109 276.5t112 276.5t255 119.5v114h29v-113h2q140 0 252 -88q-4 -6 -10.5 -11t-10.5 -11q-99 82 -231 82h-2v-740h2q129 0 231 80l21 -20q-114 -88 -252 -88h-2zM133 384q0 -77 43 -178t181 -161q53 -23 114 -27v737
q-136 -11 -237 -114t-101 -257z" />
    <glyph glyph-name="sterling" unicode="&#xa3;" horiz-adv-x="1150" 
d="M629 1270q-312 0 -312 -238v-366h265v-29h-265v-414q0 -147 -47 -194h506q123 0 176.5 21.5t53.5 84.5v117h28v-76q0 -33 -7 -104.5t-234 -71.5h-701v29h90q71 0 89 60t18 247v301h-133v29h133v358q0 143 89 208.5t231 65.5t213 -50t112 -132q-4 -4 -10 -6t-11 -6
q-56 101 -119.5 133.5t-164.5 32.5z" />
    <glyph glyph-name="currency" unicode="&#xa4;" horiz-adv-x="942" 
d="M472 467q-103 0 -179 65l-84 -83l-21 20l84 84q-71 77 -71 181t65 184l-78 77l21 21l78 -78q74 74 184 74t184 -76l78 78l21 -21l-78 -78q65 -73 65 -176q0 -102 -71 -184l84 -84l-21 -20l-84 84q-74 -68 -177 -68zM229 739.5q0 -51.5 19.5 -95.5t52.5 -76.5t77 -52
t93 -19.5t93 19.5t77 52t52.5 76.5t19.5 95.5t-19.5 95.5t-52.5 76.5t-77 52t-93 19.5t-93 -19.5t-77 -52t-52.5 -76.5t-19.5 -95.5z" />
    <glyph glyph-name="yen" unicode="&#xa5;" horiz-adv-x="1253" 
d="M612 233v304q-1 1 -1 2h-312v28h295q-126 209 -256 425t-264 442h35q123 -207 247.5 -411t245.5 -413l27 -53q6 14 11 26.5t11 26.5l492 824h35l-519 -867h322v-28h-339l-1 -2v-304h340v-28h-340v-205h-29v205h-313v28h313z" />
    <glyph glyph-name="brokenbar" unicode="&#xa6;" horiz-adv-x="458" 
d="M244 717h-29v717h29v-717zM244 -477h-29v717h29v-717z" />
    <glyph glyph-name="section" unicode="&#xa7;" horiz-adv-x="731" 
d="M283 -20l-15 24q27 16 51.5 29.5t51.5 29.5q53 31 45.5 88.5t-68.5 163.5l-178 308q-50 83 -25.5 175.5t105.5 141.5q55 31 116.5 28t114.5 -34q-35 55 -65.5 111.5t-75.5 134.5t-51 130t14.5 84.5t66.5 57.5t81 43l14 -25q-27 -16 -51.5 -29.5t-51.5 -29.5
q-53 -31 -45.5 -88t80.5 -184t166 -289q49 -80 24 -173t-106 -140q-55 -33 -116.5 -31t-114.5 35q33 -57 65.5 -112t63.5 -109q51 -87 61.5 -142t-10.5 -98q-20 -35 -66.5 -59.5t-80.5 -40.5zM167 731q3 -51 31 -100t82 -74t105 -21q90 8 141 78t40 150q-12 81 -77.5 131
t-136.5 44q-71 -5 -110 -37t-58.5 -76t-16.5 -95z" />
    <glyph glyph-name="dieresis" unicode="&#xa8;" horiz-adv-x="757" 
d="M168 1024q0 16 12.5 28.5t28.5 12.5t28.5 -12.5t12.5 -28.5t-12.5 -28.5t-28.5 -12.5t-28.5 12.5t-12.5 28.5zM506 1024q0 16 12 28.5t28.5 12.5t29 -12.5t12.5 -28.5t-12.5 -28.5t-29 -12.5t-28.5 12.5t-12 28.5z" />
    <glyph glyph-name="copyright" unicode="&#xa9;" horiz-adv-x="1359" 
d="M369 768q0 138 95.5 235t233.5 97q90 0 170 -45q-4 -4 -8 -13q-74 45 -151 45q-140 0 -234 -94t-94 -225t86 -224t225 -93q94 0 166 43l8 -11q-76 -47 -160 -47q-154 0 -245.5 97t-91.5 235zM680 242q-111 0 -206 38.5t-165.5 108.5t-110.5 165t-40 207.5t40 209
t110.5 166t165.5 108.5t206 39t206 -39t165.5 -108.5t110.5 -166t40 -209t-40 -207.5t-110.5 -165t-165.5 -108.5t-206 -38.5zM1174 763q0 209 -143.5 350.5t-350.5 141.5t-350.5 -141.5t-143.5 -350.5t144 -351t349 -142q207 0 351 142t144 351z" />
    <glyph glyph-name="ordfeminine" unicode="&#xaa;" horiz-adv-x="868" 
d="M696 1180v-553h-20v80q0 23 1 46t1 46q-31 -80 -103.5 -130.5t-148.5 -50.5t-128 23t-91 61.5t-61.5 91t-22.5 141.5t83.5 173t189.5 84t176.5 -51t103.5 -129q0 45 6 168h14zM143 905.5q0 -55.5 20.5 -104.5t56.5 -85t85 -56.5t104.5 -20.5t103.5 20.5t85 56.5t57.5 85
t20.5 104.5t-20.5 103.5t-57.5 84.5t-85 57t-103.5 20.5t-104.5 -20.5t-85 -57t-56.5 -84.5t-20.5 -103.5z" />
    <glyph glyph-name="guillemotleft" unicode="&#xab;" horiz-adv-x="935" 
d="M162 489l291 -299v-32l-351 331q88 84 175.5 165t175.5 165v-35zM512 489l291 -299v-32l-350 331q88 84 175 165t175 165v-35z" />
    <glyph glyph-name="logicalnot" unicode="&#xac;" horiz-adv-x="1136" 
d="M940 303v162h-709v29h738v-191h-29z" />
    <glyph glyph-name="registered" unicode="&#xae;" horiz-adv-x="1359" 
d="M549 430v678h137q68 0 130.5 -43t62.5 -135q0 -125 -115 -172q-5 -2 -9 -4l195 -324h-18l-189 320q-31 -9 -71 -9h-109v-311h-14zM563 754h111q100 0 145 57.5t45 126.5q0 68 -54 112t-134 44h-113v-340zM680 242q-111 0 -206 38.5t-165.5 108.5t-110.5 165t-40 207.5
t40 209t110.5 166t165.5 108.5t206 39t206 -39t165.5 -108.5t110.5 -166t40 -209t-40 -207.5t-110.5 -165t-165.5 -108.5t-206 -38.5zM1174 763q0 209 -143.5 350.5t-350.5 141.5t-350.5 -141.5t-143.5 -350.5t144 -351t349 -142q207 0 351 142t144 351z" />
    <glyph glyph-name="macron" unicode="&#xaf;" horiz-adv-x="817" 
d="M174 1008v28h471v-28h-471z" />
    <glyph glyph-name="degree" unicode="&#xb0;" horiz-adv-x="591" 
d="M139 1146q0 67 45 112t112 45t112 -45.5t45 -111.5t-45.5 -110.5t-111.5 -44.5t-111.5 44t-45.5 111zM297 1020q53 0 90 37t37 90t-37 90t-90 37t-91 -37t-38 -90t38 -90t91 -37z" />
    <glyph glyph-name="plusminus" unicode="&#xb1;" horiz-adv-x="1159" 
d="M948 279h-737v28h737v-28zM565 432v356h-354v29h354v352h29v-352h354v-29h-354v-356h-29z" />
    <glyph glyph-name="twosuperior" unicode="&#xb2;" horiz-adv-x="706" 
d="M158 1245q0 78 46 133.5t129 55.5t133 -56t50 -128t-29.5 -129.5t-77 -115t-103.5 -113t-109 -110.5h364v-14h-401q244 225 293 317.5t49 144.5q0 96 -51 142.5t-106 46.5q-97 0 -135 -54t-38 -124t41 -115q-4 -2 -10 -8q-45 49 -45 127z" />
    <glyph glyph-name="threesuperior" unicode="&#xb3;" horiz-adv-x="620" 
d="M150 850q57 -66 136 -66t137 55t58 134.5t-56 135.5t-138 56q-33 1 -62 -22q53 70 106.5 138.5t106.5 137.5h-288v15h321q-88 -108 -201 -254q92 4 159 -55.5t67 -146.5q0 -88 -62 -148t-147 -60t-148 68q2 4 11 12z" />
    <glyph glyph-name="acute" unicode="&#xb4;" horiz-adv-x="446" 
d="M422 1253l-184 -272h-33l184 272h33z" />
    <glyph glyph-name="mu" unicode="&#xb5;" horiz-adv-x="1021" 
d="M440 -14q-150 0 -209 115v-513h-26v601q-2 13 -2 26v553h28v-567q4 -74 54.5 -128.5t130.5 -56.5q150 -4 253 84t103 217v451h29v-768h-21l-2 201q-41 -98 -132 -156.5t-206 -58.5z" />
    <glyph glyph-name="paragraph" unicode="&#xb6;" horiz-adv-x="1032" 
d="M446 0h-28v866q-141 0 -237.5 96.5t-96.5 238t97 238.5t237 97h362v-1536h-28v1507h-306v-1507z" />
    <glyph glyph-name="periodcentered" unicode="&#xb7;" horiz-adv-x="376" 
d="M147 573.5q0 16.5 12.5 28.5t29 12t28.5 -12t12 -28.5t-12 -29t-28.5 -12.5t-29 12.5t-12.5 29z" />
    <glyph glyph-name="cedilla" unicode="&#xb8;" horiz-adv-x="925" 
d="M428 -428q57 0 97 42t40 102t-26.5 91t-58 52.5t-58.5 44t-27 63.5v33h29v-12q0 -53 28.5 -74.5t65.5 -45.5t56.5 -61.5t19.5 -66.5q0 -104 -52.5 -150.5t-112.5 -46.5t-106.5 30t-66.5 89l31 8q12 -43 48 -70.5t93 -27.5z" />
    <glyph glyph-name="onesuperior" unicode="&#xb9;" horiz-adv-x="382" 
d="M96 1421v13h119v-613h-14v600h-105z" />
    <glyph glyph-name="ordmasculine" unicode="&#xba;" horiz-adv-x="821" 
d="M143 905.5q0 -55.5 20.5 -104.5t57.5 -85t85 -56.5t103.5 -20.5t103.5 20.5t85 56.5t57.5 85t20.5 104.5t-20.5 103.5t-57.5 84.5t-85 57t-103.5 20.5t-103.5 -20.5t-85 -57t-57.5 -84.5t-20.5 -103.5zM123 905.5q0 59.5 22.5 111.5t61.5 92t91 62.5t111.5 22.5
t112.5 -22.5t92 -62.5t61.5 -92t22.5 -111.5t-22.5 -112t-61.5 -91t-92 -61.5t-112.5 -23t-111.5 23t-91 61.5t-61.5 91t-22.5 112z" />
    <glyph glyph-name="guillemotright" unicode="&#xbb;" horiz-adv-x="937" 
d="M483 819l351 -330l-351 -331v32l291 299l-291 295v35zM133 819l350 -330l-350 -331v32l291 299l-291 295v35z" />
    <glyph glyph-name="onequarter" unicode="&#xbc;" horiz-adv-x="1611" 
d="M78 1403v20h184v-944h-20v924h-164zM1378 301h148v-22h-148v-279h-20v279h-537q323 417 557 725v-703zM1358 301v639q-123 -160 -245 -319.5t-245 -319.5h490zM997 1505l-569 -1544h-29q223 606 570 1544h28z" />
    <glyph glyph-name="onehalf" unicode="&#xbd;" horiz-adv-x="1701" 
d="M1032 1505l-569 -1544h-29q223 606 570 1544h28zM1034 686q0 109 66.5 187.5t186.5 78.5t189.5 -78t69.5 -182t-43 -187t-109.5 -165t-146 -162t-155.5 -158h520v-20h-574q94 90 291 283.5t197 369.5q0 148 -73 213.5t-153 65.5q-137 0 -191 -78t-54 -177t59 -163
q-6 -4 -14 -12q-66 75 -66 184zM78 1403v20h184v-944h-20v924h-164z" />
    <glyph glyph-name="threequarters" unicode="&#xbe;" horiz-adv-x="2025" 
d="M1794 301h150v-22h-150v-279h-20v279h-537q182 238 557 725v-703zM1774 301v639l-492 -639h492zM1343 1507q-472 -1283 -569 -1546h-29q329 894 570 1546h28zM133 535q85 -103 214 -103q128 0 217 89t89 210.5t-89.5 209t-215.5 87.5q-51 0 -96 -35q86 111 168 217.5
t168 216.5h-455v23h504l-313 -399q143 8 247.5 -85.5t104.5 -231.5t-95.5 -231t-231.5 -93q-135 0 -230 104z" />
    <glyph glyph-name="questiondown" unicode="&#xbf;" horiz-adv-x="989" 
d="M531 1053q15 0 27.5 -12.5t12.5 -29.5t-11.5 -28.5t-27.5 -11.5t-28 10.5t-12 28.5t12 30.5t27 12.5zM766 -318.5q-102 -76.5 -253 -76.5t-267.5 116.5t-116.5 282.5q0 200 201 342q39 29 73.5 48.5t74.5 58t40 155.5v160h29v-199q0 -63 -23.5 -101t-61.5 -67.5
t-86 -59.5t-104 -79q-114 -100 -114 -258t106.5 -264.5t265.5 -106.5q119 0 217.5 68.5t135.5 181.5l26 -6q-41 -119 -143 -195.5z" />
    <glyph glyph-name="Agrave" unicode="&#xc0;" horiz-adv-x="1310" 
d="M487 1808q47 -68 92.5 -136t92.5 -136h-33q-47 68 -92 136.5t-92 135.5h32zM1249 0h-30q-137 326 -258 651h-611q-121 -325 -258 -651h-31q158 375 297.5 749.5t296.5 749.5q158 -375 297 -749.5t297 -749.5zM360 680h590q-49 147 -170 444t-125 310q-9 -27 -86 -212
q-77 -186 -142 -361t-67 -181z" />
    <glyph glyph-name="Aacute" unicode="&#xc1;" horiz-adv-x="1310" 
d="M856 1808l-184 -272h-33l184 272h33zM1249 0h-30q-137 326 -258 651h-611q-121 -325 -258 -651h-31q158 375 297.5 749.5t296.5 749.5q158 -375 297 -749.5t297 -749.5zM360 680h590q-49 147 -170 444t-125 310q-9 -27 -86 -212q-77 -186 -142 -361t-67 -181z" />
    <glyph glyph-name="Acircumflex" unicode="&#xc2;" horiz-adv-x="1310" 
d="M739 1851l-213 -315h-32q61 92 122.5 185.5t122.5 185.5q61 -92 123 -185.5t123 -185.5h-33q-53 78 -106 158t-107 157zM1249 0h-30q-137 326 -258 651h-611q-121 -325 -258 -651h-31q158 375 297.5 749.5t296.5 749.5q158 -375 297 -749.5t297 -749.5zM360 680h590
q-49 147 -170 444t-125 310q-9 -27 -86 -212q-77 -186 -142 -361t-67 -181z" />
    <glyph glyph-name="Atilde" unicode="&#xc3;" horiz-adv-x="1310" 
d="M541 1698q61 0 125 -70t130 -69q66 0 94 38.5t32 73.5q6 -2 13 -2t13 -2q-4 -68 -53 -102.5t-102 -34.5q-54 0 -87.5 21.5t-77.5 69.5t-109 48t-93.5 -39t-32.5 -74l-26 5q6 102 72.5 119.5t101.5 17.5zM1249 0h-30q-137 326 -258 651h-611q-121 -325 -258 -651h-31
q158 375 297.5 749.5t296.5 749.5q158 -375 297 -749.5t297 -749.5zM360 680h590q-49 147 -170 444t-125 310q-9 -27 -86 -212q-77 -186 -142 -361t-67 -181z" />
    <glyph glyph-name="Adieresis" unicode="&#xc4;" horiz-adv-x="1310" 
d="M449 1618q0 16 12 28.5t28.5 12.5t28.5 -12.5t12 -28.5t-12 -28.5t-28.5 -12.5t-28.5 12.5t-12 28.5zM786 1618q0 16 12.5 28.5t29 12.5t28.5 -12.5t12 -28.5t-12 -28.5t-28.5 -12.5t-29 12.5t-12.5 28.5zM1249 0h-30q-137 326 -258 651h-611q-121 -325 -258 -651h-31
q158 375 297.5 749.5t296.5 749.5q158 -375 297 -749.5t297 -749.5zM360 680h590q-49 147 -170 444t-125 310q-9 -27 -86 -212q-77 -186 -142 -361t-67 -181z" />
    <glyph glyph-name="Aring" unicode="&#xc5;" horiz-adv-x="1310" 
d="M528 1708q0 55 37 92t92.5 37t92 -37t36.5 -92t-36.5 -92t-92 -37t-92.5 37t-37 92zM557 1708q0 -41 29.5 -70.5t70.5 -29.5t71 29.5t30 70.5t-30 70.5t-71 29.5t-70.5 -29.5t-29.5 -70.5zM340 680v-29h10q-121 -325 -258 -651h-31q158 375 297.5 749.5t296.5 749.5
q158 -375 297.5 -749.5t296.5 -749.5h-30q-137 326 -258 651h12v29h-23q-49 147 -170 444t-125 310q-9 -27 -86 -212q-77 -186 -141 -362t-68 -180h-20zM950 680q5 -14 11 -29h-611q5 14 10 29h590z" />
    <glyph glyph-name="AE" unicode="&#xc6;" horiz-adv-x="1280" 
d="M1153 1434v-29h-494v-668h414v-28h-414v-680h523v-29h-551v651h-279q-121 -325 -258 -651h-31q107 248 287.5 724t280.5 710h522zM631 680v683q-141 -336 -203 -507t-66 -176h269z" />
    <glyph glyph-name="Ccedilla" unicode="&#xc7;" horiz-adv-x="1329" 
d="M1026 -260q0 -104 -52 -150.5t-112 -46.5q-131 0 -174 119l31 8q12 -43 48 -70.5t93 -27.5t97 42t40 102t-26.5 91t-58 52.5t-58.5 44t-27 63.5v17q-302 8 -502 214t-200 515q0 152 57.5 287t156.5 235t232 157.5t261 57.5q224 0 399 -102q-15 -23 -17 -25
q-163 98 -358 98q-145 0 -273 -55t-223.5 -152.5t-150.5 -227.5t-55 -274t49 -270.5t139 -221.5t217 -151.5t307 -56.5t344 99l19 -25q-178 -102 -373 -102q2 -50 30 -72t64 -44q36 -24 56 -61.5t20 -66.5z" />
    <glyph glyph-name="Egrave" unicode="&#xc8;" horiz-adv-x="1245" 
d="M582 1808q47 -68 92 -136t92 -136h-33q-47 68 -92 136.5t-92 135.5h33zM244 0v1434h850v-29h-822v-668h742v-28h-742v-680h850v-29h-878z" />
    <glyph glyph-name="Eacute" unicode="&#xc9;" horiz-adv-x="1245" 
d="M864 1808l-184 -272h-33l184 272h33zM244 0v1434h850v-29h-822v-668h742v-28h-742v-680h850v-29h-878z" />
    <glyph glyph-name="Ecircumflex" unicode="&#xca;" horiz-adv-x="1245" 
d="M674 1851l-213 -315h-33q61 92 123 185.5t123 185.5q61 -92 122.5 -185.5t123.5 -185.5h-33q-53 78 -106.5 158t-106.5 157zM244 0v1434h850v-29h-822v-668h742v-28h-742v-680h850v-29h-878z" />
    <glyph glyph-name="Edieresis" unicode="&#xcb;" horiz-adv-x="1245" 
d="M477 1618q0 16 12.5 28.5t29 12.5t28.5 -12.5t12 -28.5t-12 -28.5t-28.5 -12.5t-29 12.5t-12.5 28.5zM815 1618q0 16 12.5 28.5t28.5 12.5t28.5 -12.5t12.5 -28.5t-12.5 -28.5t-28.5 -12.5t-28.5 12.5t-12.5 28.5zM244 0v1434h850v-29h-822v-668h742v-28h-742v-680h850
v-29h-878z" />
    <glyph glyph-name="Igrave" unicode="&#xcc;" horiz-adv-x="516" 
d="M117 1808q47 -68 92 -136t92 -136h-33q-47 68 -92 136.5t-92 135.5h33zM244 1434h28v-1434h-28v1434z" />
    <glyph glyph-name="Iacute" unicode="&#xcd;" horiz-adv-x="516" 
d="M430 1808l-184 -272h-33l184 272h33zM244 1434h28v-1434h-28v1434z" />
    <glyph glyph-name="Icircumflex" unicode="&#xce;" horiz-adv-x="516" 
d="M260 1851l-213 -315h-33q61 92 123 185.5t123 185.5q61 -92 122.5 -185.5t123.5 -185.5h-33q-53 78 -106.5 158t-106.5 157zM244 1434h28v-1434h-28v1434z" />
    <glyph glyph-name="Idieresis" unicode="&#xcf;" horiz-adv-x="516" 
d="M49 1618q0 16 12.5 28.5t28.5 12.5t28.5 -12.5t12.5 -28.5t-12.5 -28.5t-28.5 -12.5t-28.5 12.5t-12.5 28.5zM387 1618q0 16 12.5 28.5t28.5 12.5t28.5 -12.5t12.5 -28.5t-12.5 -28.5t-28.5 -12.5t-28.5 12.5t-12.5 28.5zM244 1434h28v-1434h-28v1434z" />
    <glyph glyph-name="Eth" unicode="&#xd0;" horiz-adv-x="1470" 
d="M633 29q284 0 483 188.5t199 499.5q0 268 -129 413.5t-271.5 209t-345.5 63.5h-282v-666h428v-28h-428v-680h346zM258 1434h293q217 0 367.5 -67t244.5 -171t136 -231t42 -269t-57 -275.5t-208 -277t-455 -143.5h-363v709h-119v28h119v697z" />
    <glyph glyph-name="Ntilde" unicode="&#xd1;" horiz-adv-x="1654" 
d="M580.5 1569q-7.5 0 -13.5 2q4 68 53 102.5t102 34.5q54 0 88 -21.5t78 -69.5t109 -48t93 39t32 73q6 -2 13.5 -2t13.5 -2q-4 -68 -53 -102.5t-102 -34.5q-54 0 -87.5 21.5t-66.5 56.5q-54 61 -104 61q-82 0 -110 -38.5t-32 -73.5q-6 2 -13.5 2zM1382 1434h29v-1500
q-446 559 -1108 1438q-10 14 -19.5 26.5t-19.5 26.5l6 -65v-1360h-28v1499q261 -331 574.5 -746.5t428.5 -562.5t124 -159.5t20 -26.5l-7 66v1364z" />
    <glyph glyph-name="Ograve" unicode="&#xd2;" horiz-adv-x="1716" 
d="M684 1808q47 -68 92 -136t92 -136h-32q-47 68 -92.5 136.5t-92.5 135.5h33zM154 712.5q0 -145.5 55 -272.5t149.5 -222t221.5 -150.5t271 -55.5t274 55.5t227.5 150.5t154 223t56.5 273.5t-56.5 273.5t-153 224.5t-224.5 152.5t-273 56t-273 -56t-223.5 -152.5
t-150.5 -225.5t-55 -274.5zM125 714.5q0 151.5 57.5 286t156.5 233.5t232.5 157.5t285 58.5t285.5 -58.5t233.5 -157.5t157.5 -233.5t58 -286t-58 -284.5t-157.5 -232.5t-233.5 -156.5t-285.5 -57t-285 57t-232.5 156.5t-156.5 232.5t-57.5 284.5z" />
    <glyph glyph-name="Oacute" unicode="&#xd3;" horiz-adv-x="1716" 
d="M1016 1808l-185 -272h-32l184 272h33zM154 712.5q0 -145.5 55 -272.5t149.5 -222t221.5 -150.5t271 -55.5t274 55.5t227.5 150.5t154 223t56.5 273.5t-56.5 273.5t-153 224.5t-224.5 152.5t-273 56t-273 -56t-223.5 -152.5t-150.5 -225.5t-55 -274.5zM125 714.5
q0 151.5 57.5 286t156.5 233.5t232.5 157.5t285 58.5t285.5 -58.5t233.5 -157.5t157.5 -233.5t58 -286t-58 -284.5t-157.5 -232.5t-233.5 -156.5t-285.5 -57t-285 57t-232.5 156.5t-156.5 232.5t-57.5 284.5z" />
    <glyph glyph-name="Ocircumflex" unicode="&#xd4;" horiz-adv-x="1716" 
d="M831 1851l-213 -315h-32q61 92 122.5 185.5t122.5 185.5q61 -92 123 -185.5t123 -185.5h-33q-53 78 -106 158t-107 157zM154 712.5q0 -145.5 55 -272.5t149.5 -222t221.5 -150.5t271 -55.5t274 55.5t227.5 150.5t154 223t56.5 273.5t-56.5 273.5t-153 224.5t-224.5 152.5
t-273 56t-273 -56t-223.5 -152.5t-150.5 -225.5t-55 -274.5zM125 714.5q0 151.5 57.5 286t156.5 233.5t232.5 157.5t285 58.5t285.5 -58.5t233.5 -157.5t157.5 -233.5t58 -286t-58 -284.5t-157.5 -232.5t-233.5 -156.5t-285.5 -57t-285 57t-232.5 156.5t-156.5 232.5
t-57.5 284.5z" />
    <glyph glyph-name="Otilde" unicode="&#xd5;" horiz-adv-x="1716" 
d="M552 1638q-7 0 -13 2q6 103 72.5 120.5t101.5 17.5q61 0 126 -70q64 -70 130 -70q65 0 93 39t32 74q6 -2 13 -2t13 -2q-4 -68 -53 -102.5t-102 -34.5q-54 0 -87.5 21.5t-66.5 56.5q-55 61 -105 61q-81 0 -109 -39t-32 -74q-6 2 -13 2zM154 712.5q0 -145.5 55 -272.5
t149.5 -222t221.5 -150.5t271 -55.5t274 55.5t227.5 150.5t154 223t56.5 273.5t-56.5 273.5t-153 224.5t-224.5 152.5t-273 56t-273 -56t-223.5 -152.5t-150.5 -225.5t-55 -274.5zM125 714.5q0 151.5 57.5 286t156.5 233.5t232.5 157.5t285 58.5t285.5 -58.5t233.5 -157.5
t157.5 -233.5t58 -286t-58 -284.5t-157.5 -232.5t-233.5 -156.5t-285.5 -57t-285 57t-232.5 156.5t-156.5 232.5t-57.5 284.5z" />
    <glyph glyph-name="Odieresis" unicode="&#xd6;" horiz-adv-x="1716" 
d="M629 1618q0 16 12 28.5t28.5 12.5t29 -12.5t12.5 -28.5t-12.5 -28.5t-29 -12.5t-28.5 12.5t-12 28.5zM967 1618q0 16 12 28.5t28.5 12.5t29 -12.5t12.5 -28.5t-12.5 -28.5t-29 -12.5t-28.5 12.5t-12 28.5zM154 712.5q0 -145.5 55 -272.5t149.5 -222t221.5 -150.5
t271 -55.5t274 55.5t227.5 150.5t154 223t56.5 273.5t-56.5 273.5t-153 224.5t-224.5 152.5t-273 56t-273 -56t-223.5 -152.5t-150.5 -225.5t-55 -274.5zM125 714.5q0 151.5 57.5 286t156.5 233.5t232.5 157.5t285 58.5t285.5 -58.5t233.5 -157.5t157.5 -233.5t58 -286
t-58 -284.5t-157.5 -232.5t-233.5 -156.5t-285.5 -57t-285 57t-232.5 156.5t-156.5 232.5t-57.5 284.5z" />
    <glyph glyph-name="multiply" unicode="&#xd7;" horiz-adv-x="872" 
d="M707 522l-252 -250l252 -252l-21 -20l-252 252l-250 -252l-20 20l250 252l-248 248l20 21l248 -248l252 250z" />
    <glyph glyph-name="Oslash" unicode="&#xd8;" horiz-adv-x="1714" 
d="M150 712.5q0 -145.5 55 -272.5t149 -222q6 -6 12 -11l901 1076q-187 138 -373.5 138t-314.5 -56t-223.5 -152.5t-150.5 -225.5t-55 -274.5zM121 639q0 227 57.5 361.5t156.5 233.5t232 157.5t330.5 58.5t389.5 -144q75 90 132 160l17 -16l-131 -157
q145 -112 213.5 -269.5t68.5 -309t-58.5 -284.5t-157.5 -232.5t-233 -156.5t-351 -57t-422 186l-142 -170l-16 16l141 169q-227 227 -227 454zM1559 714.5q0 145.5 -65.5 293.5t-208.5 262l-18 -23q-97 -117 -209 -250t-228.5 -272t-275.5 -328.5t-171 -205.5
q198 -177 463 -179q145 0 275 55.5t227.5 150.5t154 223t56.5 273.5z" />
    <glyph glyph-name="Ugrave" unicode="&#xd9;" horiz-adv-x="1368" 
d="M545 1808q47 -68 92 -136t92 -136h-33q-47 68 -92 136.5t-92 135.5h33zM223 463v971h29v-965q0 -217 118.5 -337t312.5 -120t313.5 121t119.5 336v965h29v-971q0 -226 -128.5 -352.5t-333.5 -126.5t-332.5 125.5t-127.5 353.5z" />
    <glyph glyph-name="Uacute" unicode="&#xda;" horiz-adv-x="1368" 
d="M866 1808l-184 -272h-33l185 272h32zM223 463v971h29v-965q0 -217 118.5 -337t312.5 -120t313.5 121t119.5 336v965h29v-971q0 -226 -128.5 -352.5t-333.5 -126.5t-332.5 125.5t-127.5 353.5z" />
    <glyph glyph-name="Ucircumflex" unicode="&#xdb;" horiz-adv-x="1368" 
d="M702 1851l-213 -315h-32q61 92 122.5 185.5t122.5 185.5q61 -92 123 -185.5t123 -185.5h-33q-53 78 -106 158t-107 157zM223 463v971h29v-965q0 -217 118.5 -337t312.5 -120t313.5 121t119.5 336v965h29v-971q0 -226 -128.5 -352.5t-333.5 -126.5t-332.5 125.5
t-127.5 353.5z" />
    <glyph glyph-name="Udieresis" unicode="&#xdc;" horiz-adv-x="1368" 
d="M500 1618q0 16 12 28.5t28.5 12.5t29 -12.5t12.5 -28.5t-12.5 -28.5t-29 -12.5t-28.5 12.5t-12 28.5zM838 1618q0 16 12 28.5t28.5 12.5t29 -12.5t12.5 -28.5t-12.5 -28.5t-29 -12.5t-28.5 12.5t-12 28.5zM223 463v971h29v-965q0 -217 118.5 -337t312.5 -120t313.5 121
t119.5 336v965h29v-971q0 -226 -128.5 -352.5t-333.5 -126.5t-332.5 125.5t-127.5 353.5z" />
    <glyph glyph-name="Yacute" unicode="&#xdd;" horiz-adv-x="1216" 
d="M813 1808l-184 -272h-33l184 272h33zM623 0h-29v537q-135 225 -269.5 448t-269.5 449h35q123 -207 248 -411t246 -413l26 -53q6 14 11.5 26.5t11.5 26.5l491 824h35l-536 -897v-537z" />
    <glyph glyph-name="Thorn" unicode="&#xde;" horiz-adv-x="1024" 
d="M272 348h236q212 0 307.5 117t95.5 265t-114.5 242.5t-286.5 94.5h-238v-719zM244 0v1434h28v-338h258q148 0 279 -93.5t131 -272.5t-112 -295t-326 -116h-230v-319h-28z" />
    <glyph glyph-name="germandbls" unicode="&#xdf;" horiz-adv-x="1081" 
d="M848 665.5q-113 114.5 -277 114.5v31q110 0 184 67.5t74 176.5q0 108 -71.5 186t-221.5 78q-149 0 -232 -120t-83 -318v-881h-28v758h-134v28h134v86q0 229 91 349t246 127q258 -5 293 -118.5t35 -164.5q0 -198 -188 -268q137 -32 228 -143.5t91 -267.5
q0 -157 -122.5 -279.5t-297.5 -122.5q-118 0 -217 61l13 23q90 -58 186 -58t168 32t157 117t85 238.5t-113 268z" />
    <glyph glyph-name="agrave" unicode="&#xe0;" 
d="M379 1253q47 -68 92 -136t92 -136h-33q-47 68 -92 136.5t-92 135.5h33zM889 768v-768h-29v111q0 33 1 64.5t1 64.5q-74 -178 -191.5 -215t-191.5 -37q-157 0 -272 116.5t-115 282.5t117 281.5t280 115.5q127 0 226.5 -70.5t144.5 -181.5q0 118 8 236h21zM229.5 123
q108.5 -107 259.5 -107t261 106.5t110 261.5t-109.5 263.5t-261.5 108.5q-153 0 -260.5 -109t-107.5 -263t108.5 -261z" />
    <glyph glyph-name="aacute" unicode="&#xe1;" 
d="M723 1253l-184 -272h-33l184 272h33zM889 768v-768h-29v111q0 33 1 64.5t1 64.5q-74 -178 -191.5 -215t-191.5 -37q-157 0 -272 116.5t-115 282.5t117 281.5t280 115.5q127 0 226.5 -70.5t144.5 -181.5q0 118 8 236h21zM229.5 123q108.5 -107 259.5 -107t261 106.5
t110 261.5t-109.5 263.5t-261.5 108.5q-153 0 -260.5 -109t-107.5 -263t108.5 -261z" />
    <glyph glyph-name="acircumflex" unicode="&#xe2;" 
d="M565 1294l-213 -315h-33q61 92 123 185.5t123 185.5q61 -92 123 -185.5t123 -185.5h-33q-53 78 -106.5 158t-106.5 157zM889 768v-768h-29v111q0 33 1 64.5t1 64.5q-74 -178 -191.5 -215t-191.5 -37q-157 0 -272 116.5t-115 282.5t117 281.5t280 115.5q127 0 226.5 -70.5
t144.5 -181.5q0 118 8 236h21zM229.5 123q108.5 -107 259.5 -107t261 106.5t110 261.5t-109.5 263.5t-261.5 108.5q-153 0 -260.5 -109t-107.5 -263t108.5 -261z" />
    <glyph glyph-name="atilde" unicode="&#xe3;" 
d="M457 1079q-50 0 -92.5 -26t-49.5 -86q-6 2 -13 2t-13 2q4 68 53 102.5t102 34.5q54 0 87.5 -21.5t77.5 -69.5t109 -48t93.5 39t32.5 73q6 -2 13 -2t13 -2q-4 -69 -53 -103t-103 -34q-53 0 -86.5 21.5t-66.5 56.5q-54 61 -104 61zM889 768v-768h-29v111q0 33 1 64.5
t1 64.5q-74 -178 -191.5 -215t-191.5 -37q-157 0 -272 116.5t-115 282.5t117 281.5t280 115.5q127 0 226.5 -70.5t144.5 -181.5q0 118 8 236h21zM229.5 123q108.5 -107 259.5 -107t261 106.5t110 261.5t-109.5 263.5t-261.5 108.5q-153 0 -260.5 -109t-107.5 -263
t108.5 -261z" />
    <glyph glyph-name="adieresis" unicode="&#xe4;" 
d="M360 1024q0 16 12.5 28.5t29 12.5t28.5 -12.5t12 -28.5t-12 -28.5t-28.5 -12.5t-29 12.5t-12.5 28.5zM698 1024q0 16 12.5 28.5t29 12.5t28.5 -12.5t12 -28.5t-12 -28.5t-28.5 -12.5t-29 12.5t-12.5 28.5zM889 768v-768h-29v111q0 33 1 64.5t1 64.5q-74 -178 -191.5 -215
t-191.5 -37q-157 0 -272 116.5t-115 282.5t117 281.5t280 115.5q127 0 226.5 -70.5t144.5 -181.5q0 118 8 236h21zM229.5 123q108.5 -107 259.5 -107t261 106.5t110 261.5t-109.5 263.5t-261.5 108.5q-153 0 -260.5 -109t-107.5 -263t108.5 -261z" />
    <glyph glyph-name="aring" unicode="&#xe5;" 
d="M889 768v-768h-29v111q0 33 1 64.5t1 64.5q-74 -178 -191.5 -215t-191.5 -37q-157 0 -272 116.5t-115 282.5t117 281.5t280 115.5q127 0 226.5 -70.5t144.5 -181.5q0 118 8 236h21zM229.5 123q108.5 -107 259.5 -107t261 106.5t110 261.5t-109.5 263.5t-261.5 108.5
q-153 0 -260.5 -109t-107.5 -263t108.5 -261zM375 960.5q0 55.5 37 92.5t92 37t92 -37t37 -92.5t-37 -92.5t-92 -37t-92 37t-37 92.5zM403 960.5q0 -40.5 30 -70.5t71 -30t70.5 30t29.5 70.5t-29.5 70.5t-70.5 30t-71 -30t-30 -70.5z" />
    <glyph glyph-name="ae" unicode="&#xe6;" horiz-adv-x="1273" 
d="M884 756q-171 0 -277.5 -109t-106.5 -262q0 -59 14 -109l662 269q-43 92 -120.5 151.5t-171.5 59.5zM395 -16q-152 0 -229.5 67t-77.5 159t74.5 140.5t169.5 48.5h139q5 174 132 285q-66 68 -224 68q-100 0 -153.5 -20.5t-96.5 -51.5l-16 29q93 75 269 75t246 -80
q109 84 238 83t216 -73.5t132 -183.5q-465 -185 -690 -280q32 -81 95 -139q28 36 34 79l23 -36q-10 -37 -29 -65q91 -73 231 -73q139 0 242 99l23 -21q-115 -106 -263 -106t-251 79q-25 -27 -85 -55t-149 -28zM367 365q-128 0 -186 -44.5t-58 -102.5q0 -105 78.5 -153.5
t201.5 -48.5q124 0 198 74q-62 53 -94 128q-32 74 -35 147h-105z" />
    <glyph glyph-name="ccedilla" unicode="&#xe7;" horiz-adv-x="825" 
d="M489 -12h-6q0 -53 29.5 -74.5t65.5 -45.5t55.5 -61.5t19.5 -66.5q0 -104 -52.5 -150.5t-112.5 -46.5q-131 0 -173 119l31 8q12 -43 48 -70.5t93 -27.5t97.5 42t40.5 102t-27 91t-58.5 52.5t-58 44t-26.5 63.5v22q-145 11 -254 121.5t-109 276.5t117 281.5t270 115.5
t262 -88q-4 -6 -10 -11t-10 -11q-99 82 -242 82t-250.5 -109t-107.5 -263t108.5 -261t248.5 -107q141 0 243 80l20 -20q-114 -88 -252 -88z" />
    <glyph glyph-name="egrave" unicode="&#xe8;" horiz-adv-x="894" 
d="M309 1253q47 -68 92 -136t93 -136h-33q-47 68 -92 136.5t-93 135.5h33zM506 756q-169 0 -277 -109t-108 -262q0 -59 14 -109l662 269q-43 92 -120 151.5t-171 59.5zM764 94q-115 -106 -278 -106t-278.5 116.5t-115.5 281.5t116 282.5t281 117.5q127 0 214.5 -72.5
t132.5 -183.5q-481 -191 -691 -280q41 -104 133.5 -169t225.5 -65t237 99z" />
    <glyph glyph-name="eacute" unicode="&#xe9;" horiz-adv-x="894" 
d="M713 1253l-185 -272h-32l184 272h33zM506 756q-169 0 -277 -109t-108 -262q0 -59 14 -109l662 269q-43 92 -120 151.5t-171 59.5zM764 94q-115 -106 -278 -106t-278.5 116.5t-115.5 281.5t116 282.5t281 117.5q127 0 214.5 -72.5t132.5 -183.5q-481 -191 -691 -280
q41 -104 133.5 -169t225.5 -65t237 99z" />
    <glyph glyph-name="ecircumflex" unicode="&#xea;" horiz-adv-x="894" 
d="M494 1296l-213 -315h-33q61 92 123 185.5t123 185.5q61 -92 122.5 -185.5t122.5 -185.5h-32q-53 78 -106.5 158t-106.5 157zM506 756q-169 0 -277 -109t-108 -262q0 -59 14 -109l662 269q-43 92 -120 151.5t-171 59.5zM764 94q-115 -106 -278 -106t-278.5 116.5
t-115.5 281.5t116 282.5t281 117.5q127 0 214.5 -72.5t132.5 -183.5q-481 -191 -691 -280q41 -104 133.5 -169t225.5 -65t237 99z" />
    <glyph glyph-name="edieresis" unicode="&#xeb;" horiz-adv-x="894" 
d="M279 1024q0 16 12 28.5t28.5 12.5t28.5 -12.5t12 -28.5t-12 -28.5t-28.5 -12.5t-28.5 12.5t-12 28.5zM616 1024q0 16 12.5 28.5t29 12.5t28.5 -12.5t12 -28.5t-12 -28.5t-28.5 -12.5t-29 12.5t-12.5 28.5zM506 756q-169 0 -277 -109t-108 -262q0 -59 14 -109l662 269
q-43 92 -120 151.5t-171 59.5zM764 94q-115 -106 -278 -106t-278.5 116.5t-115.5 281.5t116 282.5t281 117.5q127 0 214.5 -72.5t132.5 -183.5q-481 -191 -691 -280q41 -104 133.5 -169t225.5 -65t237 99z" />
    <glyph glyph-name="igrave" unicode="&#xec;" horiz-adv-x="339" 
d="M25 1253q47 -68 92 -136t92 -136h-33q-47 68 -92 136.5t-92 135.5h33zM184 0h-28v768h28v-768z" />
    <glyph glyph-name="iacute" unicode="&#xed;" horiz-adv-x="339" 
d="M373 1253l-185 -272h-32l184 272h33zM184 0h-28v768h28v-768z" />
    <glyph glyph-name="icircumflex" unicode="&#xee;" horiz-adv-x="339" 
d="M172 1296l-213 -315h-33q61 92 123 185.5t123 185.5q61 -92 122.5 -185.5t123.5 -185.5h-33q-53 78 -106.5 158t-106.5 157zM184 0h-28v768h28v-768z" />
    <glyph glyph-name="idieresis" unicode="&#xef;" horiz-adv-x="339" 
d="M-39 1024q0 16 12.5 28.5t28.5 12.5t28.5 -12.5t12.5 -28.5t-12.5 -28.5t-28.5 -12.5t-28.5 12.5t-12.5 28.5zM299 1024q0 16 12.5 28.5t28.5 12.5t28.5 -12.5t12.5 -28.5t-12.5 -28.5t-28.5 -12.5t-28.5 12.5t-12.5 28.5zM184 0h-28v768h28v-768z" />
    <glyph glyph-name="eth" unicode="&#xf0;" horiz-adv-x="999" 
d="M229.5 123q108.5 -107 259.5 -107t261 106.5t110 261.5t-109.5 263.5t-261.5 108.5q-153 0 -260.5 -109t-107.5 -263t108.5 -261zM895 413q0 -83 -3 -82t-4 3q-17 -133 -123.5 -239.5t-274.5 -106.5t-283 116.5t-115 281.5t116 282.5t282 117.5t283 -117q34 -34 59 -75
q-42 212 -163.5 394.5t-207.5 281.5l-154 -166l-16 16l155 168q-116 121 -192 180l12 19q98 -74 197 -182l143 157q2 -2 17 -14l-146 -160q285 -333 351.5 -562.5t66.5 -312.5z" />
    <glyph glyph-name="ntilde" unicode="&#xf1;" horiz-adv-x="901" 
d="M342 1055q-48 0 -91 -26t-50 -87q-6 2 -13.5 2t-13.5 2q4 68 53 102.5t102 34.5q54 0 88 -21.5t78 -69.5t109 -48t93 39t32 74q6 -2 13.5 -2t13.5 -2q-4 -68 -53.5 -103t-102.5 -35t-87 21.5t-67 56.5q-56 62 -104 62zM156 768h20l2 -201q41 96 131 155.5t203 59.5
t175.5 -63.5t66.5 -165.5v-553h-29v567q-4 74 -54.5 128.5t-130.5 56.5q-148 4 -252 -83t-104 -218v-451h-28v768z" />
    <glyph glyph-name="ograve" unicode="&#xf2;" horiz-adv-x="983" 
d="M305 1253q47 -68 92 -136t92 -136h-32q-47 68 -92.5 136.5t-92.5 135.5h33zM229.5 123q108.5 -107 259.5 -107t261 106.5t110 261.5t-109.5 263.5t-261.5 108.5q-153 0 -260.5 -109t-107.5 -263t108.5 -261zM208 668.5q116 117.5 282 117.5t283.5 -118.5t117.5 -281.5
t-116 -280.5t-285 -117.5q-168 0 -283 116.5t-115 281.5t116 282.5z" />
    <glyph glyph-name="oacute" unicode="&#xf3;" horiz-adv-x="983" 
d="M709 1253l-185 -272h-32l184 272h33zM229.5 123q108.5 -107 259.5 -107t261 106.5t110 261.5t-109.5 263.5t-261.5 108.5q-153 0 -260.5 -109t-107.5 -263t108.5 -261zM208 668.5q116 117.5 282 117.5t283.5 -118.5t117.5 -281.5t-116 -280.5t-285 -117.5
q-168 0 -283 116.5t-115 281.5t116 282.5z" />
    <glyph glyph-name="ocircumflex" unicode="&#xf4;" horiz-adv-x="983" 
d="M489 1296l-213 -315h-32q61 92 122.5 185.5t122.5 185.5q61 -92 123 -185.5t123 -185.5h-33q-53 78 -106 158t-107 157zM229.5 123q108.5 -107 259.5 -107t261 106.5t110 261.5t-109.5 263.5t-261.5 108.5q-153 0 -260.5 -109t-107.5 -263t108.5 -261zM208 668.5
q116 117.5 282 117.5t283.5 -118.5t117.5 -281.5t-116 -280.5t-285 -117.5q-168 0 -283 116.5t-115 281.5t116 282.5z" />
    <glyph glyph-name="otilde" unicode="&#xf5;" horiz-adv-x="983" 
d="M373 1079q-50 0 -91.5 -25.5t-50.5 -86.5q-6 2 -13 2t-13 2q4 68 53 102.5t102 34.5q54 0 87.5 -21.5t77.5 -69.5t109 -48t93.5 39t32.5 73q6 -2 13 -2t13 -2q-4 -69 -52.5 -103t-102.5 -34t-87.5 21.5t-66.5 56.5q-54 61 -104 61zM229.5 123q108.5 -107 259.5 -107
t261 106.5t110 261.5t-109.5 263.5t-261.5 108.5q-153 0 -260.5 -109t-107.5 -263t108.5 -261zM208 668.5q116 117.5 282 117.5t283.5 -118.5t117.5 -281.5t-116 -280.5t-285 -117.5q-168 0 -283 116.5t-115 281.5t116 282.5z" />
    <glyph glyph-name="odieresis" unicode="&#xf6;" horiz-adv-x="983" 
d="M289 1024q0 16 12 28.5t28.5 12.5t29 -12.5t12.5 -28.5t-12.5 -28.5t-29 -12.5t-28.5 12.5t-12 28.5zM627 1024q0 16 12 28.5t28.5 12.5t29 -12.5t12.5 -28.5t-12.5 -28.5t-29 -12.5t-28.5 12.5t-12 28.5zM229.5 123q108.5 -107 259.5 -107t261 106.5t110 261.5
t-109.5 263.5t-261.5 108.5q-153 0 -260.5 -109t-107.5 -263t108.5 -261zM208 668.5q116 117.5 282 117.5t283.5 -118.5t117.5 -281.5t-116 -280.5t-285 -117.5q-168 0 -283 116.5t-115 281.5t116 282.5z" />
    <glyph glyph-name="divide" unicode="&#xf7;" horiz-adv-x="1071" 
d="M502 186.5q0 16.5 12 28.5t28.5 12t29 -12t12.5 -28.5t-12.5 -29t-29 -12.5t-28.5 12.5t-12 29zM502 698.5q0 16.5 12 28.5t28.5 12t29 -12t12.5 -28.5t-12.5 -29t-29 -12.5t-28.5 12.5t-12 29zM905 430h-737v29h737v-29z" />
    <glyph glyph-name="oslash" unicode="&#xf8;" horiz-adv-x="983" 
d="M508 756q-172 0 -279.5 -109t-107.5 -262q0 -154 107 -261q2 -2 4 -3q70 84 473 565q-100 70 -197 70zM213 98q-121 121 -121 287t116 283.5t281 117.5q128 0 236 -76q27 32 49 58l19 -18q-21 -25 -47 -56q145 -124 145 -298t-116 -291t-275 -117q-158 0 -268 93
q-39 -46 -68 -81l-17 20q28 34 66 78zM251 103q102 -87 245 -87q144 0 254 106.5t110 261.5t-108 263q-12 12 -26 23q-262 -310 -475 -567z" />
    <glyph glyph-name="ugrave" unicode="&#xf9;" horiz-adv-x="901" 
d="M418 1253q47 -68 92 -136t92 -136h-33q-47 68 -92 136.5t-92 135.5h33zM745 0h-20l-2 201q-41 -98 -132 -156.5t-203 -58.5t-174 63.5t-67 165.5v553h29v-567q4 -74 54.5 -128.5t130.5 -56.5q149 -4 252.5 84t103.5 217v451h28v-768z" />
    <glyph glyph-name="uacute" unicode="&#xfa;" horiz-adv-x="901" 
d="M715 1253l-185 -272h-32l184 272h33zM745 0h-20l-2 201q-41 -98 -132 -156.5t-203 -58.5t-174 63.5t-67 165.5v553h29v-567q4 -74 54.5 -128.5t130.5 -56.5q149 -4 252.5 84t103.5 217v451h28v-768z" />
    <glyph glyph-name="ucircumflex" unicode="&#xfb;" horiz-adv-x="901" 
d="M569 1296l-213 -315h-32q61 92 122.5 185.5t122.5 185.5q61 -92 123 -185.5t123 -185.5h-33q-53 78 -106 158t-107 157zM745 0h-20l-2 201q-41 -98 -132 -156.5t-203 -58.5t-174 63.5t-67 165.5v553h29v-567q4 -74 54.5 -128.5t130.5 -56.5q149 -4 252.5 84t103.5 217
v451h28v-768z" />
    <glyph glyph-name="udieresis" unicode="&#xfc;" horiz-adv-x="901" 
d="M346 1024q0 16 12.5 28.5t28.5 12.5t28.5 -12.5t12.5 -28.5t-12.5 -28.5t-28.5 -12.5t-28.5 12.5t-12.5 28.5zM684 1024q0 16 12.5 28.5t28.5 12.5t28.5 -12.5t12.5 -28.5t-12.5 -28.5t-28.5 -12.5t-28.5 12.5t-12.5 28.5zM745 0h-20l-2 201q-41 -98 -132 -156.5
t-203 -58.5t-174 63.5t-67 165.5v553h29v-567q4 -74 54.5 -128.5t130.5 -56.5q149 -4 252.5 84t103.5 217v451h28v-768z" />
    <glyph glyph-name="yacute" unicode="&#xfd;" horiz-adv-x="825" 
d="M655 1253l-184 -272h-33l185 272h32zM283 -369h-39q23 49 38 88t30.5 79t32.5 87t44 113q-94 193 -171 384t-171 386h31q94 -186 166.5 -374.5t167.5 -377.5q94 188 166.5 376t166.5 376h31z" />
    <glyph glyph-name="thorn" unicode="&#xfe;" 
d="M184 -369h-28v1905h28v-1004q45 111 144.5 181.5t226.5 70.5q163 0 280 -115t117 -282q0 -168 -115.5 -283.5t-293.5 -115.5t-259 98t-102 154l2 -129v-480zM816.5 646.5q-107.5 109.5 -260.5 109.5q-154 0 -263 -109t-109 -263t109.5 -261t262.5 -107q152 0 260 108
t108 260q0 153 -107.5 262.5z" />
    <glyph glyph-name="ydieresis" unicode="&#xff;" horiz-adv-x="825" 
d="M258 1024q0 16 12.5 28.5t28.5 12.5t28.5 -12.5t12.5 -28.5t-12.5 -28.5t-28.5 -12.5t-28.5 12.5t-12.5 28.5zM596 1024q0 16 12.5 28.5t28.5 12.5t28.5 -12.5t12.5 -28.5t-12.5 -28.5t-28.5 -12.5t-28.5 12.5t-12.5 28.5zM283 -369h-39q23 49 38 88t30.5 79t32.5 87
t44 113q-94 193 -171 384t-171 386h31q94 -186 166.5 -374.5t167.5 -377.5q94 188 166.5 376t166.5 376h31z" />
    <glyph glyph-name="Amacron" unicode="&#x100;" horiz-adv-x="1310" 
d="M420 1540v29h471v-29h-471zM1249 0h-30q-137 326 -258 651h-611q-121 -325 -258 -651h-31q158 375 297.5 749.5t296.5 749.5q158 -375 297 -749.5t297 -749.5zM360 680h590q-49 147 -170 444t-125 310q-9 -27 -86 -212q-77 -186 -142 -361t-67 -181z" />
    <glyph glyph-name="amacron" unicode="&#x101;" 
d="M305 1008v28h471v-28h-471zM889 768v-768h-29v111q0 33 1 64.5t1 64.5q-74 -178 -191.5 -215t-191.5 -37q-157 0 -272 116.5t-115 282.5t117 281.5t280 115.5q127 0 226.5 -70.5t144.5 -181.5q0 118 8 236h21zM229.5 123q108.5 -107 259.5 -107t261 106.5t110 261.5
t-109.5 263.5t-261.5 108.5q-153 0 -260.5 -109t-107.5 -263t108.5 -261z" />
    <glyph glyph-name="Abreve" unicode="&#x102;" horiz-adv-x="1310" 
d="M424 1628q-96 92 -100 230h30q4 -118 89.5 -205.5t214 -87.5t210.5 86t86 207h33q0 -136 -97 -229t-233.5 -93t-232.5 92zM1249 0h-30q-137 326 -258 651h-611q-121 -325 -258 -651h-31q158 375 297.5 749.5t296.5 749.5q158 -375 297 -749.5t297 -749.5zM360 680h590
q-49 147 -170 444t-125 310q-9 -27 -86 -212q-77 -186 -142 -361t-67 -181z" />
    <glyph glyph-name="abreve" unicode="&#x103;" 
d="M311 1116q-96 92 -100 230h31q4 -118 89.5 -205.5t214 -87.5t210.5 86t86 207h32q0 -136 -97 -229t-233.5 -93t-232.5 92zM889 768v-768h-29v111q0 33 1 64.5t1 64.5q-74 -178 -191.5 -215t-191.5 -37q-157 0 -272 116.5t-115 282.5t117 281.5t280 115.5
q127 0 226.5 -70.5t144.5 -181.5q0 118 8 236h21zM229.5 123q108.5 -107 259.5 -107t261 106.5t110 261.5t-109.5 263.5t-261.5 108.5q-153 0 -260.5 -109t-107.5 -263t108.5 -261z" />
    <glyph glyph-name="Aogonek" unicode="&#x104;" horiz-adv-x="1310" 
d="M1214 -457q-60 0 -112.5 46t-52.5 151q0 79 86 135q27 16 55.5 37.5t28.5 75.5v12q-137 326 -258 651h12v29h-23q-49 147 -170 444t-125 310q-9 -27 -86 -212q-77 -186 -141 -362t-68 -180h-20v-29h10q-121 -325 -258 -651h-31q158 375 297.5 749.5t296.5 749.5
q158 -375 297.5 -749.5t296.5 -749.5h-2v-33q0 -41 -26.5 -63.5t-58.5 -44t-58.5 -52.5t-26.5 -91t39.5 -102t97.5 -42t93.5 27.5t48.5 70.5l30 -8q-20 -59 -66 -89t-106 -30zM950 680q5 -14 11 -29h-611q5 14 10 29h590z" />
    <glyph glyph-name="aogonek" unicode="&#x105;" 
d="M1030 -338q-40 -119 -173 -119q-61 0 -113 46t-52 151q0 29 19.5 66.5t56.5 61.5t65.5 45t28.5 75v12h27v768h-21q-8 -118 -8 -236q-45 111 -144.5 181.5t-205.5 70.5q-185 0 -301.5 -115.5t-116.5 -281.5t115 -282.5t295 -116.5t259 98t101 154l-2 -129v-111h31v-33
q0 -41 -26.5 -63.5t-58.5 -44t-58.5 -52.5t-26.5 -91t40 -102t97 -42t93 27.5t48 70.5zM228.5 647q107.5 109 260.5 109q152 0 261.5 -108t109.5 -264q0 -155 -110 -261.5t-261 -106.5t-259.5 107t-108.5 261t107.5 263z" />
    <glyph glyph-name="Cacute" unicode="&#x106;" horiz-adv-x="1329" 
d="M961 1808l-185 -272h-33l185 272h33zM125 713q0 152 57.5 287t156.5 235t232 157.5t261 57.5q224 0 399 -102q-15 -23 -17 -25q-163 98 -358 98q-145 0 -273 -55t-223.5 -152.5t-150.5 -227.5t-55 -274t49 -270.5t139 -221.5t217 -151.5t307 -56.5t344 99l19 -25
q-178 -102 -360 -102q-183 0 -316 58t-228.5 156.5t-147.5 230.5t-52 284z" />
    <glyph glyph-name="cacute" unicode="&#x107;" horiz-adv-x="825" 
d="M637 1253l-184 -272h-33l184 272h33zM741 76q-114 -88 -266 -88t-267.5 116.5t-115.5 282.5t117 281.5t270 115.5t262 -88q-4 -6 -10 -11t-10 -11q-99 82 -242 82t-250.5 -109t-107.5 -263t108.5 -261t248.5 -107q141 0 243 80z" />
    <glyph glyph-name="Ccircumflex" unicode="&#x108;" horiz-adv-x="1329" 
d="M844 1851l-213 -315h-33q61 92 123 185.5t123 185.5q61 -92 122.5 -185.5t123.5 -185.5h-33q-53 78 -106.5 158t-106.5 157zM125 713q0 152 57.5 287t156.5 235t232 157.5t261 57.5q224 0 399 -102q-15 -23 -17 -25q-163 98 -358 98q-145 0 -273 -55t-223.5 -152.5
t-150.5 -227.5t-55 -274t49 -270.5t139 -221.5t217 -151.5t307 -56.5t344 99l19 -25q-178 -102 -360 -102q-183 0 -316 58t-228.5 156.5t-147.5 230.5t-52 284z" />
    <glyph glyph-name="ccircumflex" unicode="&#x109;" horiz-adv-x="825" 
d="M471 1294l-213 -315h-33q61 92 123 185.5t123 185.5q61 -92 122.5 -185.5t123.5 -185.5h-33q-53 78 -106.5 158t-106.5 157zM741 76q-114 -88 -266 -88t-267.5 116.5t-115.5 282.5t117 281.5t270 115.5t262 -88q-4 -6 -10 -11t-10 -11q-99 82 -242 82t-250.5 -109
t-107.5 -263t108.5 -261t248.5 -107q141 0 243 80z" />
    <glyph glyph-name="Cdotaccent" unicode="&#x10a;" horiz-adv-x="1329" 
d="M774 1577q0 16 12.5 28.5t28.5 12.5t28.5 -12.5t12.5 -28.5t-12.5 -28.5t-28.5 -12.5t-28.5 12.5t-12.5 28.5zM125 713q0 152 57.5 287t156.5 235t232 157.5t261 57.5q224 0 399 -102q-15 -23 -17 -25q-163 98 -358 98q-145 0 -273 -55t-223.5 -152.5t-150.5 -227.5
t-55 -274t49 -270.5t139 -221.5t217 -151.5t307 -56.5t344 99l19 -25q-178 -102 -360 -102q-183 0 -316 58t-228.5 156.5t-147.5 230.5t-52 284z" />
    <glyph glyph-name="cdotaccent" unicode="&#x10b;" horiz-adv-x="825" 
d="M446 1024q0 16 12.5 28.5t29 12.5t28.5 -12.5t12 -28.5t-12 -28.5t-28.5 -12.5t-29 12.5t-12.5 28.5zM741 76q-114 -88 -266 -88t-267.5 116.5t-115.5 282.5t117 281.5t270 115.5t262 -88q-4 -6 -10 -11t-10 -11q-99 82 -242 82t-250.5 -109t-107.5 -263t108.5 -261
t248.5 -107q141 0 243 80z" />
    <glyph glyph-name="Ccaron" unicode="&#x10c;" horiz-adv-x="1329" 
d="M838 1548l213 316h32q-61 -92 -122.5 -185.5t-122.5 -185.5q-61 92 -123 185.5t-123 185.5h33q53 -78 106 -158t107 -158zM125 713q0 152 57.5 287t156.5 235t232 157.5t261 57.5q224 0 399 -102q-15 -23 -17 -25q-163 98 -358 98q-145 0 -273 -55t-223.5 -152.5
t-150.5 -227.5t-55 -274t49 -270.5t139 -221.5t217 -151.5t307 -56.5t344 99l19 -25q-178 -102 -360 -102q-183 0 -316 58t-228.5 156.5t-147.5 230.5t-52 284z" />
    <glyph glyph-name="ccaron" unicode="&#x10d;" horiz-adv-x="825" 
d="M489 1036l213 316h33q-61 -92 -123 -185.5t-123 -185.5q-61 92 -122.5 185.5t-122.5 185.5h32q53 -78 106.5 -158t106.5 -158zM741 76q-114 -88 -266 -88t-267.5 116.5t-115.5 282.5t117 281.5t270 115.5t262 -88q-4 -6 -10 -11t-10 -11q-99 82 -242 82t-250.5 -109
t-107.5 -263t108.5 -261t248.5 -107q141 0 243 80z" />
    <glyph glyph-name="Dcaron" unicode="&#x10e;" horiz-adv-x="1456" 
d="M670 1548l213 316h32q-61 -92 -122.5 -185.5t-122.5 -185.5q-61 92 -123 185.5t-123 185.5h33q53 -78 106 -158t107 -158zM618 29q137 0 261.5 48t272.5 188t148 452q0 269 -185.5 477.5t-559.5 208.5h-283v-1374h346zM244 1434h293q217 0 367.5 -67t244.5 -171t136 -231
t42 -269t-57.5 -275.5t-208 -277t-455.5 -143.5h-362v1434z" />
    <glyph glyph-name="dcaron" unicode="&#x10f;" 
d="M1012 1208q97 92 67 234q10 4 19.5 7t19.5 7q16 -82 -9.5 -157t-84.5 -128zM209 668.5q117 115.5 280 115.5q127 0 226.5 -70.5t144.5 -181.5v1004h29v-1536h-29v111q0 33 1 64.5t1 64.5q-74 -178 -191.5 -215t-191.5 -37t-145.5 30.5t-156.5 116.5t-85 252t117 281.5z
M229.5 123q108.5 -107 259.5 -107t261 106.5t110 261.5t-109.5 263.5t-261.5 108.5q-153 0 -260.5 -109t-107.5 -263t108.5 -261z" />
    <glyph glyph-name="Dcroat" unicode="&#x110;" horiz-adv-x="1470" 
d="M633 29q284 0 483 188.5t199 499.5q0 268 -129 413.5t-271.5 209t-345.5 63.5h-282v-584h428v-28h-428v-762h346zM258 1434h293q217 0 367.5 -67t244.5 -171t136 -231t42 -269t-57 -275.5t-208 -277t-455 -143.5h-363v791h-119v28h119v615z" />
    <glyph glyph-name="dcroat" unicode="&#x111;" 
d="M209 668.5q117 115.5 280 115.5q127 0 226.5 -70.5t144.5 -181.5v730h29v-1262h-29v111q0 33 1 64.5t1 64.5q-74 -178 -191.5 -215t-191.5 -37t-145.5 30.5t-156.5 116.5t-85 252t117 281.5zM229.5 123q108.5 -107 259.5 -107t261 106.5t110 261.5t-109.5 263.5
t-261.5 108.5q-153 0 -260.5 -109t-107.5 -263t108.5 -261zM860 1290v246h29v-246h-29zM860 1290v-28h-409v28h409zM889 1290h137v-28h-137v28z" />
    <glyph glyph-name="Emacron" unicode="&#x112;" horiz-adv-x="1245" 
d="M428 1536v29h471v-29h-471zM244 0v1434h850v-29h-822v-668h742v-28h-742v-680h850v-29h-878z" />
    <glyph glyph-name="emacron" unicode="&#x113;" horiz-adv-x="894" 
d="M242 1008v28h471v-28h-471zM506 756q-169 0 -277 -109t-108 -262q0 -59 14 -109l662 269q-43 92 -120 151.5t-171 59.5zM764 94q-115 -106 -278 -106t-278.5 116.5t-115.5 281.5t116 282.5t281 117.5q127 0 214.5 -72.5t132.5 -183.5q-481 -191 -691 -280
q41 -104 133.5 -169t225.5 -65t237 99z" />
    <glyph glyph-name="Edotaccent" unicode="&#x116;" horiz-adv-x="1245" 
d="M668 1577q0 16 12 28.5t28.5 12.5t29 -12.5t12.5 -28.5t-12.5 -28.5t-29 -12.5t-28.5 12.5t-12 28.5zM244 0v1434h850v-29h-822v-668h742v-28h-742v-680h850v-29h-878z" />
    <glyph glyph-name="edotaccent" unicode="&#x117;" horiz-adv-x="894" 
d="M436 1024q0 16 12.5 28.5t29 12.5t28.5 -12.5t12 -28.5t-12 -28.5t-28.5 -12.5t-29 12.5t-12.5 28.5zM506 756q-169 0 -277 -109t-108 -262q0 -59 14 -109l662 269q-43 92 -120 151.5t-171 59.5zM764 94q-115 -106 -278 -106t-278.5 116.5t-115.5 281.5t116 282.5
t281 117.5q127 0 214.5 -72.5t132.5 -183.5q-481 -191 -691 -280q41 -104 133.5 -169t225.5 -65t237 99z" />
    <glyph glyph-name="Eogonek" unicode="&#x118;" horiz-adv-x="1245" 
d="M1086 -457q-60 0 -112 46t-52 151q0 29 19.5 66.5t56.5 61.5t65.5 45t28.5 75v12h30v29h-850v680h742v28h-742v668h822v29h-850v-1434h876v-33q0 -41 -26.5 -63.5t-58 -44t-58.5 -52.5t-27 -91t40 -102t98 -42t93.5 27.5t47.5 70.5l31 -8q-20 -59 -67 -89t-107 -30z" />
    <glyph glyph-name="eogonek" unicode="&#x119;" horiz-adv-x="894" 
d="M504 16q133 0 237 99l23 -21q-108 -100 -252 -106v12h-29v-12q-163 2 -277 117.5t-114 280.5t116 282.5t281 117.5q127 0 214.5 -72.5t132.5 -183.5q-481 -191 -691 -280q41 -104 133.5 -169t225.5 -65zM506 756q-169 0 -277 -109t-108 -262q0 -59 14 -109l662 269
q-43 92 -120 151.5t-171 59.5zM651 -338q-40 -119 -173 -119q-61 0 -113 46t-52 151q0 29 19.5 66.5t56.5 61.5t65.5 45t28.5 75h29v-21q0 -41 -26.5 -63.5t-58.5 -44t-58.5 -52.5t-26.5 -91t40 -102t97 -42t93 27.5t49 70.5z" />
    <glyph glyph-name="Ecaron" unicode="&#x11a;" horiz-adv-x="1245" 
d="M750 1548l213 316h32q-61 -92 -122.5 -185.5t-122.5 -185.5q-61 92 -123 185.5t-123 185.5h33q53 -78 106 -158t107 -158zM244 0v1434h850v-29h-822v-668h742v-28h-742v-680h850v-29h-878z" />
    <glyph glyph-name="ecaron" unicode="&#x11b;" horiz-adv-x="894" 
d="M477 1036l213 316h33q-61 -92 -123 -185.5t-123 -185.5q-61 92 -122.5 185.5t-123.5 185.5h33q53 -78 106.5 -158t106.5 -158zM506 756q-169 0 -277 -109t-108 -262q0 -59 14 -109l662 269q-43 92 -120 151.5t-171 59.5zM764 94q-115 -106 -278 -106t-278.5 116.5
t-115.5 281.5t116 282.5t281 117.5q127 0 214.5 -72.5t132.5 -183.5q-481 -191 -691 -280q41 -104 133.5 -169t225.5 -65t237 99z" />
    <glyph glyph-name="Gcircumflex" unicode="&#x11c;" horiz-adv-x="1388" 
d="M831 1851l-213 -315h-32q61 92 122.5 185.5t122.5 185.5q61 -92 123 -185.5t123 -185.5h-33q-53 78 -106 158t-107 157zM865 12q175 0 335 92v482h-352v28h381v-528q-178 -102 -358 -102q-181 0 -316 57t-230.5 156.5t-147.5 232.5t-52 284.5t57.5 286t156.5 233.5
t232 157.5t261 58.5q224 0 399 -102l-17 -25q-163 98 -358 98q-145 0 -273 -56t-223.5 -152.5t-150.5 -225.5t-55 -274.5t49 -272.5t140 -222t219 -150.5t303 -55.5z" />
    <glyph glyph-name="gcircumflex" unicode="&#x11d;" 
d="M530 1296l-213 -315h-32q61 92 122.5 185.5t122.5 185.5q61 -92 123 -185.5t123 -185.5h-33q-53 78 -106 158t-107 157zM229.5 123q108.5 -107 259.5 -107t261 106.5t110 261.5t-109.5 263.5t-261.5 108.5q-153 0 -260.5 -109t-107.5 -263t108.5 -261zM479 -12
q-157 0 -272 116.5t-115 282.5t117 281.5t280 115.5q127 0 226.5 -70.5t144.5 -181.5q0 118 8 236h21v-784q0 -241 -139.5 -297t-257.5 -56q-184 0 -345 158l19 21q133 -128 212.5 -139t149.5 -11t140.5 26.5t128 92t61.5 233.5v8l2 91v5v32l2 92q-74 -178 -191.5 -215
t-191.5 -37z" />
    <glyph glyph-name="Gbreve" unicode="&#x11e;" horiz-adv-x="1388" 
d="M576 1625.5q-97 91.5 -101 229.5h31q4 -117 89.5 -204.5t214 -87.5t210.5 86t86 206h33q0 -134 -97.5 -227.5t-233 -93.5t-232.5 91.5zM865 12q175 0 335 92v482h-352v28h381v-528q-178 -102 -358 -102q-181 0 -316 57t-230.5 156.5t-147.5 232.5t-52 284.5t57.5 286
t156.5 233.5t232 157.5t261 58.5q224 0 399 -102l-17 -25q-163 98 -358 98q-145 0 -273 -56t-223.5 -152.5t-150.5 -225.5t-55 -274.5t49 -272.5t140 -222t219 -150.5t303 -55.5z" />
    <glyph glyph-name="gbreve" unicode="&#x11f;" 
d="M305 1116q-96 92 -100 230h31q4 -118 89.5 -205.5t214 -87.5t210.5 86t86 207h32q0 -136 -97 -229t-233.5 -93t-232.5 92zM229.5 123q108.5 -107 259.5 -107t261 106.5t110 261.5t-109.5 263.5t-261.5 108.5q-153 0 -260.5 -109t-107.5 -263t108.5 -261zM479 -12
q-157 0 -272 116.5t-115 282.5t117 281.5t280 115.5q127 0 226.5 -70.5t144.5 -181.5q0 118 8 236h21v-784q0 -241 -139.5 -297t-257.5 -56q-184 0 -345 158l19 21q133 -128 212.5 -139t149.5 -11t140.5 26.5t128 92t61.5 233.5v8l2 91v5v32l2 92q-74 -178 -191.5 -215
t-191.5 -37z" />
    <glyph glyph-name="Gdotaccent" unicode="&#x120;" horiz-adv-x="1388" 
d="M774 1577q0 16 12.5 28.5t28.5 12.5t28.5 -12.5t12.5 -28.5t-12.5 -28.5t-28.5 -12.5t-28.5 12.5t-12.5 28.5zM865 12q175 0 335 92v482h-352v28h381v-528q-178 -102 -358 -102q-181 0 -316 57t-230.5 156.5t-147.5 232.5t-52 284.5t57.5 286t156.5 233.5t232 157.5
t261 58.5q224 0 399 -102l-17 -25q-163 98 -358 98q-145 0 -273 -56t-223.5 -152.5t-150.5 -225.5t-55 -274.5t49 -272.5t140 -222t219 -150.5t303 -55.5z" />
    <glyph glyph-name="gdotaccent" unicode="&#x121;" 
d="M494 1024q0 16 12 28.5t28.5 12.5t28.5 -12.5t12 -28.5t-12 -28.5t-28.5 -12.5t-28.5 12.5t-12 28.5zM229.5 123q108.5 -107 259.5 -107t261 106.5t110 261.5t-109.5 263.5t-261.5 108.5q-153 0 -260.5 -109t-107.5 -263t108.5 -261zM479 -12q-157 0 -272 116.5
t-115 282.5t117 281.5t280 115.5q127 0 226.5 -70.5t144.5 -181.5q0 118 8 236h21v-784q0 -241 -139.5 -297t-257.5 -56q-184 0 -345 158l19 21q133 -128 212.5 -139t149.5 -11t140.5 26.5t128 92t61.5 233.5v8l2 91v5v32l2 92q-74 -178 -191.5 -215t-191.5 -37z" />
    <glyph glyph-name="uni0122" unicode="&#x122;" horiz-adv-x="1388" 
d="M633 -465l158 422h47l-176 -422h-29zM865 12q175 0 335 92v482h-352v28h381v-528q-178 -102 -358 -102q-181 0 -316 57t-230.5 156.5t-147.5 232.5t-52 284.5t57.5 286t156.5 233.5t232 157.5t261 58.5q224 0 399 -102l-17 -25q-163 98 -358 98q-145 0 -273 -56
t-223.5 -152.5t-150.5 -225.5t-55 -274.5t49 -272.5t140 -222t219 -150.5t303 -55.5z" />
    <glyph glyph-name="uni0123" unicode="&#x123;" 
d="M705 1460l-158 -422h-47l176 422h29zM229.5 123q108.5 -107 259.5 -107t261 106.5t110 261.5t-109.5 263.5t-261.5 108.5q-153 0 -260.5 -109t-107.5 -263t108.5 -261zM479 -12q-157 0 -272 116.5t-115 282.5t117 281.5t280 115.5q127 0 226.5 -70.5t144.5 -181.5
q0 118 8 236h21v-784q0 -241 -139.5 -297t-257.5 -56q-184 0 -345 158l19 21q133 -128 212.5 -139t149.5 -11t140.5 26.5t128 92t61.5 233.5v8l2 91v5v32l2 92q-74 -178 -191.5 -215t-191.5 -37z" />
    <glyph glyph-name="Hcircumflex" unicode="&#x124;" horiz-adv-x="1499" 
d="M756 1851l-213 -315h-33q61 92 123 185.5t123 185.5q61 -92 122.5 -185.5t122.5 -185.5h-32q-53 78 -106.5 158t-106.5 157zM1223 0v709h-951v-709h-28v1434h28v-697h951v697h37l-9 -1434h-28z" />
    <glyph glyph-name="hcircumflex" unicode="&#x125;" horiz-adv-x="901" 
d="M504 1851l-213 -315h-33q61 92 123 185.5t123 185.5q61 -92 122.5 -185.5t123.5 -185.5h-33q-53 78 -106.5 158t-106.5 157zM156 1536h28v-956q37 86 126 144t202 58t175.5 -63.5t66.5 -165.5v-553h-29v567q-4 74 -54.5 128.5t-130.5 56.5q-148 4 -252 -83t-104 -218
v-451h-28v1536z" />
    <glyph glyph-name="Hbar" unicode="&#x126;" horiz-adv-x="1536" 
d="M1241 0v709h-950v-709h-29v1008h-160v28h160v398h29v-398h950v398h37l-2 -398h158v-28h-158q-2 -317 -6 -1008h-29zM291 1008v-271h950v271h-950z" />
    <glyph glyph-name="hbar" unicode="&#x127;" horiz-adv-x="901" 
d="M156 1536h28v-338h330v-29h-330v-589q37 86 126 144t202 58t175.5 -63.5t66.5 -165.5v-553h-29v567q-4 74 -54.5 128.5t-130.5 56.5q-148 4 -252 -83t-104 -218v-451h-28v1169h-113v29h113v338z" />
    <glyph glyph-name="Itilde" unicode="&#x128;" horiz-adv-x="516" 
d="M124 1698q52 0 86 -21.5t77 -69.5t110 -48q66 0 93.5 38.5t31.5 73.5q6 -2 13.5 -2t13.5 -2q-4 -68 -53 -102.5t-102 -34.5q-54 0 -87.5 21.5t-77.5 69.5t-109 48t-93.5 -39t-32.5 -74l-27 5q4 69 54.5 103t102.5 34zM244 1434h28v-1434h-28v1434z" />
    <glyph glyph-name="itilde" unicode="&#x129;" horiz-adv-x="339" 
d="M48 1055q-81 0 -109.5 -39t-32.5 -74q-6 2 -13.5 2t-13.5 2q4 68 53 102.5t102 34.5q54 0 88 -21.5t78 -69.5t109 -48t93 39t32 74q6 -2 13.5 -2t13.5 -2q-4 -68 -53.5 -103t-102.5 -35t-86.5 21.5t-66.5 56.5q-55 62 -104 62zM184 0h-28v768h28v-768z" />
    <glyph glyph-name="Imacron" unicode="&#x12a;" horiz-adv-x="516" 
d="M25 1540v29h471v-29h-471zM244 1434h28v-1434h-28v1434z" />
    <glyph glyph-name="imacron" unicode="&#x12b;" horiz-adv-x="339" 
d="M-66 1008v28h472v-28h-472zM184 0h-28v768h28v-768z" />
    <glyph glyph-name="Iogonek" unicode="&#x12e;" horiz-adv-x="516" 
d="M242 -457q-60 0 -112 46t-52 151q0 29 19.5 66.5t56.5 61.5t65.5 45t28.5 75v12h24v1434h-28v-1434h32v-33q0 -41 -26.5 -63.5t-58 -44t-58.5 -52.5t-27 -91t40 -102t98 -42t93.5 27.5t47.5 70.5l31 -8q-20 -59 -67 -89t-107 -30z" />
    <glyph glyph-name="iogonek" unicode="&#x12f;" horiz-adv-x="339" 
d="M129 1024q0 16 12.5 28.5t28.5 12.5t28.5 -12.5t12.5 -28.5t-12.5 -28.5t-28.5 -12.5t-28.5 12.5t-12.5 28.5zM150 -457q-60 0 -112 46t-52 151q0 29 19.5 66.5t56.5 61.5t65.5 45t28.5 75v12h28v-33q0 -41 -26.5 -63.5t-58 -44t-58.5 -52.5t-27 -91t40 -102t98 -42
t93.5 27.5t47.5 70.5l31 -8q-20 -59 -67 -89t-107 -30zM156 0v768h28v-768h-28z" />
    <glyph glyph-name="Idotaccent" unicode="&#x130;" horiz-adv-x="516" 
d="M217 1577q0 16 12.5 28.5t28.5 12.5t28.5 -12.5t12.5 -28.5t-12.5 -28.5t-28.5 -12.5t-28.5 12.5t-12.5 28.5zM244 1434h28v-1434h-28v1434z" />
    <glyph glyph-name="dotlessi" unicode="&#x131;" horiz-adv-x="339" 
d="M184 0h-28v768h28v-768z" />
    <glyph glyph-name="Jcircumflex" unicode="&#x134;" horiz-adv-x="520" 
d="M264 1851l-213 -315h-33q61 92 123 185.5t123 185.5q61 -92 123 -185.5t123 -185.5h-33q-53 78 -106.5 158t-106.5 157zM250 190v1244h29v-1250q0 -219 -110 -345t-269 -130v29q154 8 252 128.5t98 323.5z" />
    <glyph glyph-name="jcircumflex" unicode="&#x135;" horiz-adv-x="339" 
d="M172 1294l-213 -315h-33q61 92 123 185.5t123 185.5q61 -92 122.5 -185.5t123.5 -185.5h-33q-53 78 -106.5 158t-106.5 157zM156 -23v791h28v-782q0 -226 -116 -355l-25 19q113 126 113 327z" />
    <glyph glyph-name="uni0136" unicode="&#x136;" horiz-adv-x="1206" 
d="M512 -465l158 422h47l-176 -422h-29zM244 0v1434h28v-697q0 -16 -1 -29.5t-1 -29.5q10 10 17.5 20.5t106.5 105.5t285.5 272t375.5 358h45q-7 -7 -594 -566q174 -217 343 -434t343 -434h-41l-668 848l-213 -201l2 -647h-28z" />
    <glyph glyph-name="uni0137" unicode="&#x137;" horiz-adv-x="749" 
d="M295 -465l158 422h47l-176 -422h-29zM184 0h-28v1536h28v-1176l457 426l18 -20l-299 -285q88 -121 176.5 -240.5t176.5 -240.5h-37l-340 461l-152 -144v-317z" />
    <glyph glyph-name="Lacute" unicode="&#x139;" horiz-adv-x="1132" 
d="M793 1808l-185 -272h-33l185 272h33zM244 0v1434h28v-1405h830v-29h-858z" />
    <glyph glyph-name="lacute" unicode="&#x13a;" horiz-adv-x="356" 
d="M324 1849l-185 -272h-33l185 272h33zM193 0h-29v1536h29v-1536z" />
    <glyph glyph-name="uni013B" unicode="&#x13b;" horiz-adv-x="1132" 
d="M547 -465l158 422h47l-177 -422h-28zM244 0v1434h28v-1405h830v-29h-858z" />
    <glyph glyph-name="uni013C" unicode="&#x13c;" horiz-adv-x="356" 
d="M37 -465l158 422h47l-176 -422h-29zM193 0h-29v1536h29v-1536z" />
    <glyph glyph-name="Lcaron" unicode="&#x13d;" horiz-adv-x="1132" 
d="M557 1208q96 91 68 234q10 4 19 7t20 7q16 -82 -10 -157t-85 -128zM244 0v1434h28v-1405h830v-29h-858z" />
    <glyph glyph-name="lcaron" unicode="&#x13e;" horiz-adv-x="356" 
d="M315 1208q96 91 68 234q10 4 19.5 7t19.5 7q16 -82 -9.5 -157t-84.5 -128zM193 0h-29v1536h29v-1536z" />
    <glyph glyph-name="Lslash" unicode="&#x141;" horiz-adv-x="1148" 
d="M260 1434h29v-773l477 175v-29l-477 -175v-603h829v-29h-858v622l-137 -51v29l137 50v784z" />
    <glyph glyph-name="lslash" unicode="&#x142;" horiz-adv-x="387" 
d="M205 0h-29v615l-117 -44v29l117 43v893h29v-882l164 61v-29l-164 -61v-625z" />
    <glyph glyph-name="Nacute" unicode="&#x143;" horiz-adv-x="1654" 
d="M1034 1808l-184 -272h-33l184 272h33zM1382 1434h29v-1500q-446 559 -1108 1438q-10 14 -19.5 26.5t-19.5 26.5l6 -65v-1360h-28v1499q261 -331 574.5 -746.5t428.5 -562.5t124 -159.5t20 -26.5l-7 66v1364z" />
    <glyph glyph-name="nacute" unicode="&#x144;" horiz-adv-x="901" 
d="M625 1253l-185 -272h-32l184 272h33zM156 768h20l2 -201q41 96 131 155.5t203 59.5t175.5 -63.5t66.5 -165.5v-553h-29v567q-4 74 -54.5 128.5t-130.5 56.5q-148 4 -252 -83t-104 -218v-451h-28v768z" />
    <glyph glyph-name="uni0145" unicode="&#x145;" horiz-adv-x="1654" 
d="M606 -465l158 422h47l-176 -422h-29zM1384 1434h29v-1500q-446 559 -1108 1438q-10 14 -19.5 26.5t-19.5 26.5l6 -65v-1360h-28v1499q261 -331 574.5 -746.5t428.5 -562.5t124 -159.5t20 -26.5l-7 66v1364z" />
    <glyph glyph-name="uni0146" unicode="&#x146;" horiz-adv-x="901" 
d="M295 -465l158 422h47l-176 -422h-29zM156 768h20l2 -201q41 96 131 155.5t203 59.5t175.5 -63.5t66.5 -165.5v-553h-29v567q-4 74 -54.5 128.5t-130.5 56.5q-148 4 -252 -83t-104 -218v-451h-28v768z" />
    <glyph glyph-name="Ncaron" unicode="&#x147;" horiz-adv-x="1654" 
d="M848 1548l213 316h33q-61 -92 -123 -185.5t-123 -185.5q-61 92 -122.5 185.5t-123.5 185.5h33q53 -78 106.5 -158t106.5 -158zM1382 1434h29v-1500q-446 559 -1108 1438q-10 14 -19.5 26.5t-19.5 26.5l6 -65v-1360h-28v1499q261 -331 574.5 -746.5t428.5 -562.5
t124 -159.5t20 -26.5l-7 66v1364z" />
    <glyph glyph-name="ncaron" unicode="&#x148;" horiz-adv-x="901" 
d="M457 1036l213 316h32q-61 -92 -122.5 -185.5t-122.5 -185.5q-61 92 -123 185.5t-123 185.5h33q53 -78 106 -158t107 -158zM156 768h20l2 -201q41 96 131 155.5t203 59.5t175.5 -63.5t66.5 -165.5v-553h-29v567q-4 74 -54.5 128.5t-130.5 56.5q-148 4 -252 -83t-104 -218
v-451h-28v768z" />
    <glyph glyph-name="Omacron" unicode="&#x14c;" horiz-adv-x="1716" 
d="M627 1540v29h471v-29h-471zM154 712.5q0 -145.5 55 -272.5t149.5 -222t221.5 -150.5t271 -55.5t274 55.5t227.5 150.5t154 223t56.5 273.5t-56.5 273.5t-153 224.5t-224.5 152.5t-273 56t-273 -56t-223.5 -152.5t-150.5 -225.5t-55 -274.5zM125 714.5q0 151.5 57.5 286
t156.5 233.5t232.5 157.5t285 58.5t285.5 -58.5t233.5 -157.5t157.5 -233.5t58 -286t-58 -284.5t-157.5 -232.5t-233.5 -156.5t-285.5 -57t-285 57t-232.5 156.5t-156.5 232.5t-57.5 284.5z" />
    <glyph glyph-name="omacron" unicode="&#x14d;" horiz-adv-x="983" 
d="M256 1008v28h471v-28h-471zM229.5 123q108.5 -107 259.5 -107t261 106.5t110 261.5t-109.5 263.5t-261.5 108.5q-153 0 -260.5 -109t-107.5 -263t108.5 -261zM208 668.5q116 117.5 282 117.5t283.5 -118.5t117.5 -281.5t-116 -280.5t-285 -117.5q-168 0 -283 116.5
t-115 281.5t116 282.5z" />
    <glyph glyph-name="Ohungarumlaut" unicode="&#x150;" horiz-adv-x="1716" 
d="M1272 1808l-185 -272h-32l184 272h33zM825 1808l-184 -272h-33l185 272h32zM154 712.5q0 -145.5 55 -272.5t149.5 -222t221.5 -150.5t271 -55.5t274 55.5t227.5 150.5t154 223t56.5 273.5t-56.5 273.5t-153 224.5t-224.5 152.5t-273 56t-273 -56t-223.5 -152.5
t-150.5 -225.5t-55 -274.5zM125 714.5q0 151.5 57.5 286t156.5 233.5t232.5 157.5t285 58.5t285.5 -58.5t233.5 -157.5t157.5 -233.5t58 -286t-58 -284.5t-157.5 -232.5t-233.5 -156.5t-285.5 -57t-285 57t-232.5 156.5t-156.5 232.5t-57.5 284.5z" />
    <glyph glyph-name="ohungarumlaut" unicode="&#x151;" horiz-adv-x="983" 
d="M905 1253l-184 -272h-33l184 272h33zM459 1253l-185 -272h-32l184 272h33zM229.5 123q108.5 -107 259.5 -107t261 106.5t110 261.5t-109.5 263.5t-261.5 108.5q-153 0 -260.5 -109t-107.5 -263t108.5 -261zM208 668.5q116 117.5 282 117.5t283.5 -118.5t117.5 -281.5
t-116 -280.5t-285 -117.5q-168 0 -283 116.5t-115 281.5t116 282.5z" />
    <glyph glyph-name="OE" unicode="&#x152;" horiz-adv-x="1937" 
d="M856 1421q-145 0 -273 -56t-223.5 -152.5t-150.5 -225.5t-55 -274.5t55 -272.5t149.5 -222t221.5 -150.5t270 -55.5q74 0 147 16v1379q-72 14 -141 14zM1786 1434v-29h-760v-668h680v-28h-680v-680h789v-29h-803q-77 -16 -156 -16q-152 0 -285 57t-232 156.5
t-156.5 232.5t-57.5 284.5t57.5 286t156.5 233.5t232.5 157.5t284.5 58.5q79 0 153 -16h777z" />
    <glyph glyph-name="oe" unicode="&#x153;" horiz-adv-x="1345" 
d="M956 756q-171 0 -278 -109.5t-107 -261.5q0 -59 15 -109l661 269q-43 92 -120 151.5t-171 59.5zM92 386q0 165 116 282.5t281 117.5q121 0 227 -69q102 70 227 70q124 -1 211 -73.5t132 -183.5q-465 -185 -690 -280q41 -104 133 -169t226 -65t237 99l22 -21
q-115 -106 -257 -106q-143 0 -242 68q-104 -68 -207 -68q-185 0 -300.5 116.5t-115.5 281.5zM690 75q-147 119 -147 298t115 296q15 15 32 28q-90 57 -185 58q-168 2 -276 -107.5t-108 -263.5t108.5 -261t259.5 -107q108 0 201 59z" />
    <glyph glyph-name="Racute" unicode="&#x154;" horiz-adv-x="1161" 
d="M772 1808l-184 -272h-33l184 272h33zM244 0v1434h286q148 0 279 -93.5t131 -272.5t-84 -266.5t-175 -117.5l411 -684h-37l-401 676q-67 -18 -152 -19h-230v-657h-28zM272 686h236q213 0 308 121t95 265t-114.5 238.5t-286.5 94.5h-238v-719z" />
    <glyph glyph-name="racute" unicode="&#x155;" horiz-adv-x="534" 
d="M500 1253l-185 -272h-32l184 272h33zM184 451v-451h-28v768h20l2 -201q43 98 133 154.5t207 60.5v-28q-136 -4 -235 -90t-99 -213z" />
    <glyph glyph-name="uni0156" unicode="&#x156;" horiz-adv-x="1161" 
d="M383 -465l158 422h47l-176 -422h-29zM244 0v1434h286q148 0 279 -93.5t131 -272.5t-84 -266.5t-175 -117.5l411 -684h-37l-401 676q-67 -18 -152 -19h-230v-657h-28zM272 686h236q213 0 308 121t95 265t-114.5 238.5t-286.5 94.5h-238v-719z" />
    <glyph glyph-name="uni0157" unicode="&#x157;" horiz-adv-x="534" 
d="M111 -465l157 422h47l-176 -422h-28zM184 451v-451h-28v768h20l2 -201q43 98 133 154.5t207 60.5v-28q-136 -4 -235 -90t-99 -213z" />
    <glyph glyph-name="Rcaron" unicode="&#x158;" horiz-adv-x="1161" 
d="M565 1548l213 316h33q-61 -92 -123 -185.5t-123 -185.5q-61 92 -122.5 185.5t-123.5 185.5h33q53 -78 106.5 -158t106.5 -158zM244 0v1434h286q148 0 279 -93.5t131 -272.5t-84 -266.5t-175 -117.5l411 -684h-37l-401 676q-67 -18 -152 -19h-230v-657h-28zM272 686h236
q213 0 308 121t95 265t-114.5 238.5t-286.5 94.5h-238v-719z" />
    <glyph glyph-name="rcaron" unicode="&#x159;" horiz-adv-x="534" 
d="M309 1036l213 316h33q-61 -92 -123 -185.5t-123 -185.5q-61 92 -122.5 185.5t-123.5 185.5h33q53 -78 106.5 -158t106.5 -158zM184 451v-451h-28v768h20l2 -201q43 98 133 154.5t207 60.5v-28q-136 -4 -235 -90t-99 -213z" />
    <glyph glyph-name="Sacute" unicode="&#x15a;" horiz-adv-x="1087" 
d="M686 1808l-184 -272h-33l184 272h33zM889 1343q-174 72 -334 72t-259 -86.5t-99 -196.5t57 -165.5t144 -94t187.5 -72.5t187.5 -83t144.5 -127t57.5 -188q0 -199 -125 -308.5t-324 -109.5t-301 67.5t-121 77.5l17 27q121 -89 236.5 -116.5t185.5 -27.5q162 0 282.5 98.5
t120.5 272.5q0 121 -57.5 194.5t-144.5 120.5t-187 80t-187 73t-144.5 100.5t-57.5 145.5q0 154 109 249.5t279 95.5t345 -76z" />
    <glyph glyph-name="sacute" unicode="&#x15b;" horiz-adv-x="647" 
d="M535 1253l-185 -272h-33l185 272h33zM343.5 12q46.5 0 114.5 46.5t68 143.5t-75.5 133t-130 52t-130 54.5t-75.5 138.5q0 99 61 147.5t124 48.5q146 0 224 -88l-20 -20q-35 41 -89.5 60.5t-88.5 19.5q-68 0 -125.5 -40t-57.5 -109q0 -68 31 -101t76 -54.5t99 -38t130 -56
t76 -136.5q0 -98 -62 -163.5t-174 -65.5q-55 0 -122.5 21.5t-110.5 74.5l23 18q36 -54 112 -70t122.5 -16z" />
    <glyph glyph-name="Scircumflex" unicode="&#x15c;" horiz-adv-x="1087" 
d="M557 1851l-213 -315h-33q61 92 123 185.5t123 185.5q61 -92 122.5 -185.5t123.5 -185.5h-33q-53 78 -106.5 158t-106.5 157zM889 1343q-174 72 -334 72t-259 -86.5t-99 -196.5t57 -165.5t144 -94t187.5 -72.5t187.5 -83t144.5 -127t57.5 -188q0 -199 -125 -308.5
t-324 -109.5t-301 67.5t-121 77.5l17 27q121 -89 236.5 -116.5t185.5 -27.5q162 0 282.5 98.5t120.5 272.5q0 121 -57.5 194.5t-144.5 120.5t-187 80t-187 73t-144.5 100.5t-57.5 145.5q0 154 109 249.5t279 95.5t345 -76z" />
    <glyph glyph-name="scircumflex" unicode="&#x15d;" horiz-adv-x="647" 
d="M303 1296l-213 -315h-33q61 92 123 185.5t123 185.5q61 -92 122.5 -185.5t123.5 -185.5h-33q-53 78 -106.5 158t-106.5 157zM343.5 12q46.5 0 114.5 46.5t68 143.5t-75.5 133t-130 52t-130 54.5t-75.5 138.5q0 99 61 147.5t124 48.5q146 0 224 -88l-20 -20
q-35 41 -89.5 60.5t-88.5 19.5q-68 0 -125.5 -40t-57.5 -109q0 -68 31 -101t76 -54.5t99 -38t130 -56t76 -136.5q0 -98 -62 -163.5t-174 -65.5q-55 0 -122.5 21.5t-110.5 74.5l23 18q36 -54 112 -70t122.5 -16z" />
    <glyph glyph-name="Scedilla" unicode="&#x15e;" horiz-adv-x="1087" 
d="M889 1343q-174 72 -334 72t-259 -86.5t-99 -196.5t57 -165.5t144 -94t187.5 -72.5t187.5 -83t144.5 -127t57.5 -188t-51 -221.5t-216 -169.5q-77 -26 -167 -27q1 -50 29 -72t65 -44q37 -24 56.5 -61.5t19.5 -66.5q0 -104 -52.5 -150.5t-112.5 -46.5t-106.5 30t-66.5 89
l30 8q12 -43 47.5 -70.5t93.5 -27.5t98 42t40 102t-26.5 91t-58.5 52.5t-58.5 44t-26.5 63.5v17q-193 5 -291 70t-117 75l17 27q121 -89 236.5 -116.5t185.5 -27.5q162 0 282.5 98.5t120.5 272.5q0 121 -57.5 194.5t-144.5 120.5t-187 80t-187 73t-144.5 100.5t-57.5 145.5
q0 154 109 249.5t279 95.5t345 -76z" />
    <glyph glyph-name="scedilla" unicode="&#x15f;" horiz-adv-x="647" 
d="M343.5 12q46.5 0 114.5 46.5t68 143.5t-75.5 133t-130 52t-130 54.5t-75.5 138.5q0 99 61 147.5t124 48.5q146 0 224 -88l-20 -20q-35 41 -89.5 60.5t-88.5 19.5q-68 0 -125.5 -40t-57.5 -109q0 -68 31 -101t76 -54.5t99 -38t130 -56t76 -136.5q0 -98 -62 -163.5
t-173 -65.5q1 -50 29 -72q29 -22 65 -44q36 -24 55.5 -61.5t19.5 -66.5q0 -104 -52.5 -150.5t-112.5 -46.5t-106 30t-66 89l30 8q12 -43 48 -70.5t93 -27.5t97.5 42t40.5 102t-26.5 91t-58.5 52.5t-58.5 44t-26.5 63.5v18q-138 13 -205 95l23 18q36 -54 112 -70t122.5 -16z
" />
    <glyph glyph-name="Scaron" unicode="&#x160;" horiz-adv-x="1087" 
d="M541 1548l213 316h32q-61 -92 -122.5 -185.5t-122.5 -185.5q-61 92 -123 185.5t-123 185.5h33q53 -78 106 -158t107 -158zM889 1343q-174 72 -334 72t-259 -86.5t-99 -196.5t57 -165.5t144 -94t187.5 -72.5t187.5 -83t144.5 -127t57.5 -188q0 -199 -125 -308.5
t-324 -109.5t-301 67.5t-121 77.5l17 27q121 -89 236.5 -116.5t185.5 -27.5q162 0 282.5 98.5t120.5 272.5q0 121 -57.5 194.5t-144.5 120.5t-187 80t-187 73t-144.5 100.5t-57.5 145.5q0 154 109 249.5t279 95.5t345 -76z" />
    <glyph glyph-name="scaron" unicode="&#x161;" horiz-adv-x="647" 
d="M322 1036l213 316h32q-61 -92 -122.5 -185.5t-122.5 -185.5q-61 92 -123 185.5t-123 185.5h33q53 -78 106 -158t107 -158zM343.5 12q46.5 0 114.5 46.5t68 143.5t-75.5 133t-130 52t-130 54.5t-75.5 138.5q0 99 61 147.5t124 48.5q146 0 224 -88l-20 -20
q-35 41 -89.5 60.5t-88.5 19.5q-68 0 -125.5 -40t-57.5 -109q0 -68 31 -101t76 -54.5t99 -38t130 -56t76 -136.5q0 -98 -62 -163.5t-174 -65.5q-55 0 -122.5 21.5t-110.5 74.5l23 18q36 -54 112 -70t122.5 -16z" />
    <glyph glyph-name="uni0162" unicode="&#x162;" horiz-adv-x="1019" 
d="M324 -465l157 422h47l-176 -422h-28zM934 1434v-29h-410v-1405h-28v1405h-410v29h848z" />
    <glyph glyph-name="uni0163" unicode="&#x163;" horiz-adv-x="536" 
d="M61 -465l158 422h47l-176 -422h-29zM219 1104h29v-352h260v-29h-260v-723h-29v723h-182v29h182v352z" />
    <glyph glyph-name="Tcaron" unicode="&#x164;" horiz-adv-x="1019" 
d="M508 1548l213 316h33q-61 -92 -123 -185.5t-123 -185.5q-61 92 -122.5 185.5t-123.5 185.5h33q53 -78 106.5 -158t106.5 -158zM934 1434v-29h-410v-1405h-28v1405h-410v29h848z" />
    <glyph glyph-name="tcaron" unicode="&#x165;" horiz-adv-x="536" 
d="M408 1208q95 90 67 234q10 4 19.5 7t19.5 7q16 -82 -9.5 -157t-84.5 -128zM219 1104h29v-352h260v-29h-260v-723h-29v723h-182v29h182v352z" />
    <glyph glyph-name="Tbar" unicode="&#x166;" horiz-adv-x="1028" 
d="M279 1008v28h221v369h-410v29h848v-29h-410v-369h222v-28h-222v-1008h-28v1008h-221z" />
    <glyph glyph-name="tbar" unicode="&#x167;" horiz-adv-x="536" 
d="M43 1008v28h176v68h29v-68h266v-28h-266v-256h260v-29h-260v-723h-29v723h-182v29h182v256h-176z" />
    <glyph glyph-name="Utilde" unicode="&#x168;" horiz-adv-x="1370" 
d="M585 1698q52 0 86 -21.5t77 -69.5t110 -48q66 0 93.5 38.5t31.5 73.5q6 -2 13.5 -2t13.5 -2q-4 -68 -53 -102.5t-102 -34.5q-54 0 -88 21.5t-78 69.5t-110 48t-93 -39t-31 -74l-27 5q4 69 54.5 103t102.5 34zM225 463v971h29v-965q0 -217 118.5 -337t312.5 -120
t313.5 121t119.5 336v965h29v-971q0 -226 -128.5 -352.5t-333.5 -126.5t-332.5 125.5t-127.5 353.5z" />
    <glyph glyph-name="utilde" unicode="&#x169;" horiz-adv-x="901" 
d="M338 1055q-83 0 -110 -39t-31 -74q-6 2 -13.5 2t-13.5 2q4 68 53 102.5t102 34.5q54 0 87.5 -21.5t78.5 -69.5t109 -48q65 0 93 39t32 74q6 -2 13 -2t14 -2q-4 -68 -53.5 -103t-102.5 -35t-87 21.5t-67 56.5q-55 62 -104 62zM745 0h-20l-2 201q-41 -98 -132 -156.5
t-203 -58.5t-174 63.5t-67 165.5v553h29v-567q4 -74 54.5 -128.5t130.5 -56.5q149 -4 252.5 84t103.5 217v451h28v-768z" />
    <glyph glyph-name="Umacron" unicode="&#x16a;" horiz-adv-x="1370" 
d="M481 1540v29h471v-29h-471zM225 463v971h29v-965q0 -217 118.5 -337t312.5 -120t313.5 121t119.5 336v965h29v-971q0 -226 -128.5 -352.5t-333.5 -126.5t-332.5 125.5t-127.5 353.5z" />
    <glyph glyph-name="umacron" unicode="&#x16b;" horiz-adv-x="901" 
d="M211 1008v28h471v-28h-471zM745 0h-20l-2 201q-41 -98 -132 -156.5t-203 -58.5t-174 63.5t-67 165.5v553h29v-567q4 -74 54.5 -128.5t130.5 -56.5q149 -4 252.5 84t103.5 217v451h28v-768z" />
    <glyph glyph-name="Ubreve" unicode="&#x16c;" horiz-adv-x="1370" 
d="M471 1626q-96 92 -100 229h30q4 -115 89 -203.5t215 -88.5t211 86.5t85 205.5h33q0 -135 -97 -228t-233.5 -93t-232.5 92zM225 463v971h29v-965q0 -217 118.5 -337t312.5 -120t313.5 121t119.5 336v965h29v-971q0 -226 -128.5 -352.5t-333.5 -126.5t-332.5 125.5
t-127.5 353.5z" />
    <glyph glyph-name="ubreve" unicode="&#x16d;" horiz-adv-x="901" 
d="M215 1116q-96 92 -100 230h30q4 -116 89 -204.5t215 -88.5t211 86.5t85 206.5h33q0 -136 -97 -229t-233.5 -93t-232.5 92zM745 0h-20l-2 201q-41 -98 -132 -156.5t-203 -58.5t-174 63.5t-67 165.5v553h29v-567q4 -74 54.5 -128.5t130.5 -56.5q149 -4 252.5 84t103.5 217
v451h28v-768z" />
    <glyph glyph-name="Uring" unicode="&#x16e;" horiz-adv-x="1370" 
d="M225 463v971h29v-965q0 -217 118.5 -337t312.5 -120t313.5 121t119.5 336v965h29v-971q0 -226 -128.5 -352.5t-333.5 -126.5t-332.5 125.5t-127.5 353.5zM569 1665q0 55 37 92t92.5 37t92 -37t36.5 -92t-36.5 -92t-92 -37t-92.5 37t-37 92zM598 1665q0 -41 29.5 -70.5
t70.5 -29.5t71 29.5t30 70.5t-30 70.5t-71 29.5t-70.5 -29.5t-29.5 -70.5z" />
    <glyph glyph-name="uring" unicode="&#x16f;" horiz-adv-x="901" 
d="M745 0h-20l-2 201q-41 -98 -132 -156.5t-203 -58.5t-174 63.5t-67 165.5v553h29v-567q4 -74 54.5 -128.5t130.5 -56.5q149 -4 252.5 84t103.5 217v451h28v-768zM328 960.5q0 55.5 36.5 92.5t92 37t92.5 -37t37 -92.5t-37 -92.5t-92.5 -37t-92 37t-36.5 92.5zM356 960.5
q0 -40.5 30 -70.5t71 -30t70.5 30t29.5 70.5t-29.5 70.5t-70.5 30t-71 -30t-30 -70.5z" />
    <glyph glyph-name="Uhungarumlaut" unicode="&#x170;" horiz-adv-x="1370" 
d="M1085 1808l-184 -272h-33l185 272h32zM639 1808l-184 -272h-33l184 272h33zM225 463v971h29v-965q0 -217 118.5 -337t312.5 -120t313.5 121t119.5 336v965h29v-971q0 -226 -128.5 -352.5t-333.5 -126.5t-332.5 125.5t-127.5 353.5z" />
    <glyph glyph-name="uhungarumlaut" unicode="&#x171;" horiz-adv-x="901" 
d="M860 1253l-184 -272h-33l184 272h33zM414 1253l-185 -272h-32l184 272h33zM745 0h-20l-2 201q-41 -98 -132 -156.5t-203 -58.5t-174 63.5t-67 165.5v553h29v-567q4 -74 54.5 -128.5t130.5 -56.5q149 -4 252.5 84t103.5 217v451h28v-768z" />
    <glyph glyph-name="Uogonek" unicode="&#x172;" horiz-adv-x="1370" 
d="M733 0v-15q-23 -2 -47 -1q-206 0 -333.5 125.5t-127.5 353.5v971h29v-965q0 -217 118.5 -337t312.5 -120t313.5 121t119.5 336v965h29v-971q0 -226 -116.5 -341t-268.5 -134v12h-29zM728 -457q-60 0 -112.5 46t-52.5 151q0 29 19.5 66.5t56.5 61.5t65 44q28 22 29 73
q15 1 29 3v-21q0 -41 -26.5 -63.5t-58.5 -44t-58.5 -52.5t-26.5 -91t40 -102t97 -42t93 27.5t48 70.5l31 -8q-20 -59 -66.5 -89t-106.5 -30z" />
    <glyph glyph-name="uogonek" unicode="&#x173;" horiz-adv-x="901" 
d="M717 0h28v-33q0 -41 -26.5 -63.5t-58 -44t-58.5 -52.5t-27 -91t39.5 -102t97.5 -42t94 27.5t48 70.5l31 -8q-20 -59 -66.5 -89t-106.5 -30t-112.5 46t-52.5 151q0 29 19.5 66.5t56.5 61.5t65.5 45t28.5 75v12zM388 -14q-112 0 -174 63.5t-67 165.5v553h29v-567
q4 -74 54.5 -128.5t130.5 -56.5q149 -4 252.5 84t103.5 217v451h28v-768h-20l-2 201q-41 -98 -132 -156.5t-203 -58.5z" />
    <glyph glyph-name="Ydieresis" unicode="&#x178;" horiz-adv-x="1216" 
d="M397 1618q0 16 12.5 28.5t29 12.5t28.5 -12.5t12 -28.5t-12 -28.5t-28.5 -12.5t-29 12.5t-12.5 28.5zM735 1618q0 16 12.5 28.5t29 12.5t28.5 -12.5t12 -28.5t-12 -28.5t-28.5 -12.5t-29 12.5t-12.5 28.5zM623 0h-29v537q-135 225 -269.5 448t-269.5 449h35
q123 -207 248 -411t246 -413l26 -53q6 14 11.5 26.5t11.5 26.5l491 824h35l-536 -897v-537z" />
    <glyph glyph-name="Zacute" unicode="&#x179;" horiz-adv-x="1284" 
d="M854 1808l-184 -272h-33l184 272h33zM188 1434h973l-1061 -1405h1129v-29h-1180q262 369 527.5 714t527.5 691h-887q-63 0 -93 16.5t-30 75.5v8h33v-24q0 -18 13 -32.5t48 -14.5z" />
    <glyph glyph-name="zacute" unicode="&#x17a;" horiz-adv-x="720" 
d="M524 1253l-184 -272h-33l185 272h32zM645 0h-571l532 739h-424q-63 0 -93 16.5t-30 75.5v9h27v-25q0 -18 16.5 -32.5t51.5 -14.5h501l-532 -739h522v-29z" />
    <glyph glyph-name="Zdotaccent" unicode="&#x17b;" horiz-adv-x="1284" 
d="M614 1550.5q0 16.5 12.5 28.5t29 12t28.5 -12t12 -28.5t-12 -29t-28.5 -12.5t-29 12.5t-12.5 29zM188 1434h973l-1061 -1405h1129v-29h-1180q262 369 527.5 714t527.5 691h-887q-63 0 -93 16.5t-30 75.5v8h33v-24q0 -18 13 -32.5t48 -14.5z" />
    <glyph glyph-name="zdotaccent" unicode="&#x17c;" horiz-adv-x="720" 
d="M293 1024q0 16 12 28.5t28.5 12.5t29 -12.5t12.5 -28.5t-12.5 -28.5t-29 -12.5t-28.5 12.5t-12 28.5zM645 0h-571l532 739h-424q-63 0 -93 16.5t-30 75.5v9h27v-25q0 -18 16.5 -32.5t51.5 -14.5h501l-532 -739h522v-29z" />
    <glyph glyph-name="Zcaron" unicode="&#x17d;" horiz-adv-x="1284" 
d="M647 1548l213 316h33q-61 -92 -123 -185.5t-123 -185.5q-61 92 -122.5 185.5t-123.5 185.5h33q53 -78 106.5 -158t106.5 -158zM188 1434h973l-1061 -1405h1129v-29h-1180q262 369 527.5 714t527.5 691h-887q-63 0 -93 16.5t-30 75.5v8h33v-24q0 -18 13 -32.5t48 -14.5z
" />
    <glyph glyph-name="zcaron" unicode="&#x17e;" horiz-adv-x="720" 
d="M375 1036l213 316h33q-61 -92 -123 -185.5t-123 -185.5q-61 92 -123 185.5t-123 185.5h33q53 -78 106.5 -158t106.5 -158zM645 0h-571l532 739h-424q-63 0 -93 16.5t-30 75.5v9h27v-25q0 -18 16.5 -32.5t51.5 -14.5h501l-532 -739h522v-29z" />
    <glyph glyph-name="florin" unicode="&#x192;" horiz-adv-x="587" 
d="M254 733v-612q0 -222 -110 -346.5t-269 -128.5v28q145 0 247.5 122t102.5 317v620h-133v29h133v299q0 221 108.5 344t270.5 131v-29q-145 0 -247.5 -122t-102.5 -316v-307h266v-29h-266z" />
    <glyph glyph-name="circumflex" unicode="&#x2c6;" horiz-adv-x="921" 
d="M475 1296l-213 -315h-33q61 92 123 185.5t123 185.5q61 -92 122.5 -185.5t123.5 -185.5h-33q-53 78 -106.5 158t-106.5 157z" />
    <glyph glyph-name="caron" unicode="&#x2c7;" horiz-adv-x="911" 
d="M475 1036l213 316h33q-61 -92 -123 -185.5t-123 -185.5q-61 92 -122.5 185.5t-123.5 185.5h33q53 -78 106.5 -158t106.5 -158z" />
    <glyph glyph-name="breve" unicode="&#x2d8;" horiz-adv-x="1042" 
d="M305 1116q-96 92 -100 230h31q4 -118 89.5 -205.5t214 -87.5t210.5 86t86 207h32q0 -136 -97 -229t-233.5 -93t-232.5 92z" />
    <glyph glyph-name="dotaccent" unicode="&#x2d9;" horiz-adv-x="378" 
d="M137 1024q0 16 12.5 28.5t29 12.5t28.5 -12.5t12 -28.5t-12 -28.5t-28.5 -12.5t-29 12.5t-12.5 28.5z" />
    <glyph glyph-name="ring" unicode="&#x2da;" horiz-adv-x="866" 
d="M344 960.5q0 55.5 37 92.5t92 37t92 -37t37 -92.5t-37 -92.5t-92 -37t-92 37t-37 92.5zM373 960.5q0 -40.5 29.5 -70.5t70.5 -30t70.5 30t29.5 70.5t-29.5 70.5t-70.5 30t-70.5 -30t-29.5 -70.5z" />
    <glyph glyph-name="ogonek" unicode="&#x2db;" horiz-adv-x="1705" 
d="M420 -457q-60 0 -112 46t-52 151q0 29 19.5 66.5t56.5 61.5t65.5 45t28.5 75v12h29v-33q0 -41 -27 -63.5t-58.5 -44t-58 -52.5t-26.5 -91t40 -102t97 -42t93 27.5t48 70.5l31 -8q-20 -59 -67 -89t-107 -30z" />
    <glyph glyph-name="tilde" unicode="&#x2dc;" horiz-adv-x="1214" 
d="M518 1055q-81 0 -109 -39t-32 -74q-6 2 -13.5 2t-13.5 2q4 68 53 102.5t102 34.5q54 0 88 -21.5t78 -69.5t109 -48t93 39t32 74q6 -2 13.5 -2t13.5 -2q-4 -68 -53.5 -103t-102.5 -35t-86.5 21.5t-66.5 56.5q-56 62 -105 62z" />
    <glyph glyph-name="hungarumlaut" unicode="&#x2dd;" horiz-adv-x="892" 
d="M868 1253l-184 -272h-33l185 272h32zM422 1253l-184 -272h-33l184 272h33z" />
    <glyph glyph-name="pi" unicode="&#x3c0;" horiz-adv-x="700" 
d="M205 627v-627h-29v627h-104v28h544v-28h-77v-627h-29v627h-305z" />
    <glyph glyph-name="Etilde" unicode="&#x1ebc;" horiz-adv-x="1245" 
d="M441.5 1569q-7.5 0 -13.5 2q4 68 53 102.5t102 34.5q54 0 88 -21.5t77 -69.5t109 -48t94 39t32 73q6 -2 13.5 -2t13.5 -2q-4 -68 -53 -102.5t-102 -34.5q-54 0 -88 21.5t-67 56.5q-54 61 -104 61q-83 0 -110 -38.5t-31 -73.5q-6 2 -13.5 2zM244 0v1434h850v-29h-822v-668
h742v-28h-742v-680h850v-29h-878z" />
    <glyph glyph-name="endash" unicode="&#x2013;" horiz-adv-x="890" 
d="M137 367v28h617v-28h-617z" />
    <glyph glyph-name="emdash" unicode="&#x2014;" horiz-adv-x="1302" 
d="M137 367v28h1028v-28h-1028z" />
    <glyph glyph-name="quoteleft" unicode="&#x2018;" horiz-adv-x="378" 
d="M176 1442q-28 -143 68 -234l-13 -37q-59 53 -84.5 128t-9.5 157z" />
    <glyph glyph-name="quoteright" unicode="&#x2019;" horiz-adv-x="376" 
d="M135 1208q96 91 68 234q10 4 19 7t20 7q16 -82 -10 -157t-85 -128z" />
    <glyph glyph-name="quotesinglbase" unicode="&#x201a;" horiz-adv-x="438" 
d="M139 -59q96 91 68 233q10 4 19.5 7t19.5 7q16 -82 -9.5 -156.5t-84.5 -127.5z" />
    <glyph glyph-name="quotedblleft" unicode="&#x201c;" horiz-adv-x="591" 
d="M174 1442q-28 -143 68 -234l-13 -37q-59 53 -84.5 128t-9.5 157zM387 1442q-28 -143 68 -234l-13 -37q-59 53 -84.5 128t-9.5 157z" />
    <glyph glyph-name="quotedblright" unicode="&#x201d;" horiz-adv-x="593" 
d="M350 1208q96 91 68 234q10 4 19 7t20 7q16 -82 -10 -157t-85 -128zM137 1208q96 91 68 234q10 4 19 7t20 7q16 -82 -9.5 -157t-84.5 -128z" />
    <glyph glyph-name="quotedblbase" unicode="&#x201e;" horiz-adv-x="651" 
d="M352 -59q96 91 68 233q10 4 19.5 7t19.5 7q16 -82 -9.5 -156.5t-84.5 -127.5zM139 -59q96 91 68 233q10 4 19.5 7t19.5 7q16 -82 -9.5 -156.5t-84.5 -127.5z" />
    <glyph glyph-name="dagger" unicode="&#x2020;" horiz-adv-x="671" 
d="M147 868v29h175v272h28v-272h174v-29h-174v-718h-28v718h-175z" />
    <glyph glyph-name="daggerdbl" unicode="&#x2021;" horiz-adv-x="847" 
d="M236 868v29h174v272h28v-272h174v-29h-174v-266h295v-29h-295v-423h-28v423h-293v29h293v266h-174z" />
    <glyph glyph-name="bullet" unicode="&#x2022;" horiz-adv-x="686" 
d="M209 615q0 56 39 95.5t95 39.5t95 -39t39 -95t-39 -95.5t-95 -39.5t-95 39t-39 95z" />
    <glyph glyph-name="ellipsis" unicode="&#x2026;" 
d="M815 41q0 16 12.5 28.5t28.5 12.5t28.5 -12.5t12.5 -28.5t-12.5 -28.5t-28.5 -12.5t-28.5 12.5t-12.5 28.5zM481 41q0 16 12.5 28.5t29 12.5t28.5 -12.5t12 -28.5t-12 -28.5t-28.5 -12.5t-29 12.5t-12.5 28.5zM147 41q0 16 12.5 28.5t29 12.5t28.5 -12.5t12 -28.5
t-12 -28.5t-28.5 -12.5t-29 12.5t-12.5 28.5z" />
    <glyph glyph-name="perthousand" unicode="&#x2030;" horiz-adv-x="1865" 
d="M1395 72q-66 64 -66 158t66 158.5t158 64.5t159.5 -65.5t67.5 -157.5t-68 -157t-159 -65q-92 0 -158 64zM1693 93q58 56 58 136t-57.5 137.5t-139 57.5t-139 -57.5t-57.5 -137.5t58 -136t138.5 -56t138.5 56zM961 1024l-611 -1024h-33l611 1024h33zM179 637
q-66 64 -66 159t66.5 158.5t157.5 63.5q92 0 159 -65t67 -157t-67 -157.5t-159 -65.5t-158 64zM141 794q0 -80 58 -136t139 -56t139 56t58 136t-57.5 137.5t-139.5 57.5t-139.5 -57.5t-57.5 -137.5zM801 72q-66 64 -66 158t66 158.5t158 64.5t159.5 -65.5t67.5 -157.5
t-68 -157t-159 -65q-92 0 -158 64zM960.5 37q80.5 0 138.5 56t58 136t-57.5 137.5t-139 57.5t-139 -57.5t-57.5 -137.5t58 -136t138.5 -56z" />
    <glyph glyph-name="guilsinglleft" unicode="&#x2039;" horiz-adv-x="585" 
d="M162 489l291 -299v-32l-351 331q88 84 175.5 165t175.5 165v-35z" />
    <glyph glyph-name="guilsinglright" unicode="&#x203a;" horiz-adv-x="587" 
d="M133 819l350 -330l-350 -331v32l291 299l-291 295v35z" />
    <glyph glyph-name="fraction" unicode="&#x2044;" horiz-adv-x="634" 
d="M616 1546l-569 -1546h-29q329 894 570 1546h28z" />
    <glyph glyph-name="Euro" unicode="&#x20ac;" horiz-adv-x="1138" 
d="M102 559v29h129q-4 40 -4 86t8 102h-135v29h140q58 324 224.5 433.5t319.5 109.5q82 0 137.5 -20.5t65.5 -29.5l-12 -20q-92 41 -198 41t-250.5 -67t-227.5 -311q-22 -64 -32 -136h503v-29h-507q-5 -50 -5 -98t4 -90h508v-29h-505q26 -215 163.5 -380t353.5 -165
q106 0 209 58l25 -17q-115 -69 -237 -69t-273 82.5t-237 333.5q-25 75 -35 157h-132z" />
    <glyph glyph-name="trademark" unicode="&#x2122;" horiz-adv-x="1193" 
d="M1001 1020h-10v520q-63 -92 -121.5 -180t-113.5 -168q-25 33 -59.5 84t-88.5 130.5t-86 133.5v-520h-12v553q59 -90 107.5 -160t77 -111.5t61.5 -87.5q49 76 112.5 166.5t132.5 192.5v-553zM408 1550v-12h-152v-518h-8v518h-152v12h312z" />
    <glyph glyph-name="Omega" unicode="&#x2126;" horiz-adv-x="1413" 
d="M825 29q404 154 404 551q0 291 -143.5 443.5t-374 152.5t-377 -149.5t-146.5 -436.5q0 -220 117.5 -355.5t294.5 -205.5v-29h-440v29h372q-58 27 -124 69t-158 154.5t-92 342.5t138.5 419.5t418.5 189.5q152 0 256 -60.5t195 -192.5t91 -369q0 -336 -255 -497
q-49 -31 -105 -56h346v-29h-418v29z" />
    <glyph glyph-name="Delta" unicode="&#x2206;" horiz-adv-x="864" 
d="M743 586h-622l311 909zM163 614h538l-269 785z" />
    <glyph glyph-name="product" unicode="&#x220f;" horiz-adv-x="858" 
d="M276 -102h-28v1638h362v-1638h-28v1609h-306v-1609z" />
    <glyph glyph-name="summation" unicode="&#x2211;" horiz-adv-x="915" 
d="M193 -86h602l28 -29h-669l233 826l-233 825h669l-28 -29h-602l223 -796z" />
    <glyph glyph-name="minus" unicode="&#x2212;" horiz-adv-x="1073" 
d="M905 381h-737v29h737v-29z" />
    <glyph glyph-name="radical" unicode="&#x221a;" horiz-adv-x="1130" 
d="M94 768h203l258 -545l475 1004h33l-508 -1100l-279 612h-182v29z" />
    <glyph glyph-name="infinity" unicode="&#x221e;" horiz-adv-x="974" 
d="M322 485q-74 0 -115 41t-41 88.5t41 88t115 40.5q74 1 115 -25t55 -49q14 23 54 49t115 26q74 0 111 -41t37 -88.5t-37 -88.5t-111 -41q-75 0 -115 26t-54 49q-14 -23 -55 -49t-115 -26zM477 612q0 43 -46 73t-107 30t-91 -35t-30 -65.5t29.5 -65.5t107.5 -35t107.5 38
t29.5 60zM551 544.5q45 -30.5 107 -30.5t92 35t30 65.5t-29.5 65.5t-90.5 35t-107.5 -30t-46.5 -70t45 -70.5z" />
    <glyph glyph-name="integral" unicode="&#x222b;" horiz-adv-x="598" 
d="M285 1286q0 228 71.5 235t104.5 7h76v-29h-117q-63 0 -85 -53t-22 -176v-1258q0 -220 -34.5 -263.5t-67.5 -47.5t-74 -4h-76v29h117q63 0 85 53t22 176v1331z" />
    <glyph glyph-name="approxequal" unicode="&#x2248;" horiz-adv-x="925" 
d="M189.5 682q-7.5 0 -13.5 2q4 68 53 102.5t102 34.5q54 0 88 -21.5t77 -69.5t109 -48t94 39t32 74q6 -2 13.5 -2t13.5 -2q-4 -70 -54 -104t-103 -34q-52 0 -85.5 21.5t-66.5 56.5q-55 62 -105 62q-81 0 -109 -39t-32 -74q-6 2 -13.5 2zM342 485q-82 0 -109.5 -38.5
t-31.5 -73.5q-6 2 -13.5 2t-13.5 2q4 68 53 102.5t102 34.5q54 0 88 -21.5t77 -69.5t109 -48t94 39t32 73q6 -2 13.5 -2t13.5 -2q-4 -68 -53 -102.5t-102 -34.5q-54 0 -88 21.5t-67 56.5q-55 61 -104 61z" />
    <glyph glyph-name="notequal" unicode="&#x2260;" horiz-adv-x="1310" 
d="M1165 733v-28h-408q-190 -228 -307 -369h715v-29h-739q-129 -154 -256 -307l-16 16q121 145 242 291h-267v29h291q84 102 162 194t147 175h-600v28h623l276 332l16 -16q-131 -157 -263 -316h384z" />
    <glyph glyph-name="lessequal" unicode="&#x2264;" horiz-adv-x="1198" 
d="M952 197h-737v28h737v-28zM188 969l844 -486v-32q-225 129 -448.5 259t-448.5 259q225 129 448.5 259t448.5 259v-33q-211 -123 -422 -242.5t-422 -242.5z" />
    <glyph glyph-name="greaterequal" unicode="&#x2265;" horiz-adv-x="1191" 
d="M186 225h738v-28h-738v28zM1032 969l-844 485v33q225 -129 448.5 -259t448.5 -259q-225 -129 -448 -259t-449 -259v32q211 123 422 243t422 243z" />
    <glyph glyph-name="lozenge" unicode="&#x25ca;" horiz-adv-x="851" 
d="M147 811l279 -588l279 588l-279 588zM115 811l311 684l311 -684l-311 -684z" />
    <glyph glyph-name="fi" unicode="&#xfb01;" horiz-adv-x="919" 
d="M59 739v29h134v293q0 222 107.5 344.5t270.5 130.5v-29q-145 0 -247.5 -122.5t-102.5 -315.5v-301h543v-768h-29v739h-514v-739h-28v739h-134z" />
    <glyph glyph-name="fl" unicode="&#xfb02;" horiz-adv-x="927" 
d="M59 733v29h134v299q0 222 107.5 344.5t270.5 130.5h193v-1536h-29v1507h-164q-145 0 -247.5 -122.5t-102.5 -315.5v-307h266v-29h-266v-733h-28v733h-134z" />
    </font>
</defs>
</svg>
